<svg width="376" height="164" viewBox="0 0 376 164" fill="none" xmlns="http://www.w3.org/2000/svg">
<path d="M77.375 107.062C77.2708 109.432 74.3932 110.878 68.7422 111.398C68.5339 111.815 68.5339 112.427 68.7422 113.234C73.6641 113.078 77.1536 113 79.2109 113C82.4661 113 86.1771 113.078 90.3438 113.234C90.5521 112.427 90.5521 111.815 90.3438 111.398C84.6406 110.878 81.763 109.432 81.7109 107.062C81.4505 98.9635 81.3203 91.9062 81.3203 85.8906C81.3203 77.6615 81.4245 70.3828 81.6328 64.0547H82.0234L101.086 112.023H101.477L119.289 64.9922H119.641C119.901 72.8307 120.031 79.7969 120.031 85.8906C120.031 94.3542 119.901 101.581 119.641 107.57C119.589 108.247 119.276 108.833 118.703 109.328C118.156 109.797 117.336 110.174 116.242 110.461C115.148 110.721 114.224 110.904 113.469 111.008C112.714 111.112 111.75 111.216 110.578 111.32C110.37 111.737 110.37 112.349 110.578 113.156C115.005 113 119.536 112.922 124.172 112.922C129.719 112.922 135.057 113 140.188 113.156C140.396 112.688 140.396 112.076 140.188 111.32C131.542 110.799 127.193 109.576 127.141 107.648C126.828 99.4714 126.672 91.2552 126.672 83C126.672 75.0052 126.776 67.7266 126.984 61.1641C127.036 59.237 131.385 58.013 140.031 57.4922C140.24 56.737 140.24 56.125 140.031 55.6562C134.901 55.8125 128.078 55.8906 119.562 55.8906L102.922 99.3281L86.9062 55.8906C80.5521 55.8906 74.9271 55.7865 70.0312 55.5781C69.7708 56.099 69.7708 56.5938 70.0312 57.0625C73.1302 57.5052 75.1484 58.1562 76.0859 59.0156C77.0495 59.849 77.5573 61.7891 77.6094 64.8359C77.7917 71.2422 77.8828 77.2969 77.8828 83C77.8828 90.8906 77.7135 98.9115 77.375 107.062ZM75.7734 107.062C76.112 98.8594 76.2812 90.8385 76.2812 83C76.2812 77.2969 76.1901 71.2422 76.0078 64.8359C75.9557 62.4401 75.487 60.9036 74.6016 60.2266C73.7422 59.5234 71.8672 58.9766 68.9766 58.5859C68.2474 56.9974 68.2734 55.4349 69.0547 53.8984C75.0443 54.1589 82.8307 54.2891 92.4141 54.2891L105.227 88.5078L118.43 54.2891C125.409 54.2891 133.117 54.1849 141.555 53.9766C142.076 55.6693 142.128 57.349 141.711 59.0156C135.956 59.5885 133.052 60.3568 133 61.3203C132.766 66.2161 132.648 73.4427 132.648 83C132.648 92.8698 132.818 101.034 133.156 107.492C133.208 108.456 136.112 109.224 141.867 109.797C142.284 111.464 142.232 113.143 141.711 114.836C133.273 114.628 128.365 114.523 126.984 114.523C124.901 114.523 119.068 114.628 109.484 114.836C108.833 113.013 108.833 111.333 109.484 109.797C115.135 109.224 117.987 108.482 118.039 107.57C118.299 101.477 118.43 94.25 118.43 85.8906C118.43 79.3802 118.404 74.6016 118.352 71.5547L102.57 113.625H99.9531L82.9219 70.6953V85.8906C82.9219 91.9062 83.0521 98.9635 83.3125 107.062C83.3646 108.469 86.2161 109.406 91.8672 109.875C92.5182 111.438 92.5182 113.117 91.8672 114.914C84.0807 114.602 75.9948 114.602 67.6094 114.914C66.9844 113.117 66.9844 111.438 67.6094 109.875C73 109.354 75.7214 108.417 75.7734 107.062ZM156.711 84.6016C157.935 84.8099 158.898 85.2917 159.602 86.0469C160.331 86.776 160.695 87.7135 160.695 88.8594C160.695 90.2396 160.24 91.3854 159.328 92.2969C158.417 93.1823 157.219 93.625 155.734 93.625C154.198 93.625 152.805 93.0781 151.555 91.9844C150.305 90.8906 149.68 89.3411 149.68 87.3359C149.68 83.9245 151.294 81.1641 154.523 79.0547C157.779 76.9453 162.023 75.8906 167.258 75.8906C172.232 75.8906 175.721 76.8932 177.727 78.8984C179.758 80.8776 180.773 84.224 180.773 88.9375V102.609L183.273 102.531C185.409 102.688 186.893 103.703 187.727 105.578L186.477 107.727C185.669 108.951 184.992 109.901 184.445 110.578C183.924 111.229 183.169 111.971 182.18 112.805C181.19 113.638 180.031 114.237 178.703 114.602C177.375 114.966 175.826 115.148 174.055 115.148C171.867 115.148 170.214 114.328 169.094 112.688C166.281 114.719 162.609 115.734 158.078 115.734C156.099 115.734 154.406 115.422 153 114.797C151.62 114.198 150.604 113.391 149.953 112.375C149.328 111.359 148.885 110.409 148.625 109.523C148.365 108.638 148.234 107.74 148.234 106.828C148.234 103 149.523 100.135 152.102 98.2344C154.68 96.3333 159.888 94.3802 167.727 92.375V88.1172C167.727 86.0339 167.284 84.5104 166.398 83.5469C165.539 82.5833 164.419 82.1016 163.039 82.1016C160.096 82.1016 157.987 82.9349 156.711 84.6016ZM169.328 96.0469V104.211C166.828 107.518 164.276 109.172 161.672 109.172C160.161 109.172 158.924 108.807 157.961 108.078C157.023 107.349 156.555 106.32 156.555 104.992C156.555 102.857 157.427 101.099 159.172 99.7188C160.943 98.3385 164.328 97.1146 169.328 96.0469ZM167.727 103.703V98.9375C163.951 100.318 162.062 102.336 162.062 104.992C162.062 106.112 162.466 106.893 163.273 107.336C164.654 106.841 166.138 105.63 167.727 103.703ZM155.734 90.1875C154.823 90.1875 154.185 89.5234 153.82 88.1953C153.299 86.0599 153.938 84.1979 155.734 82.6094C157.505 81.0469 160.174 80.2656 163.742 80.2656C165.435 80.2656 166.789 80.9297 167.805 82.2578C168.82 83.5599 169.328 85.513 169.328 88.1172V93.5469C161.646 95.526 156.477 97.401 153.82 99.1719C151.164 100.917 149.836 103.469 149.836 106.828C149.836 108.599 150.435 110.266 151.633 111.828C152.831 113.365 154.979 114.133 158.078 114.133C159.302 114.133 160.448 113.938 161.516 113.547C162.609 113.156 163.729 112.531 164.875 111.672C166.047 110.786 166.763 110.227 167.023 109.992C167.284 109.758 167.714 109.354 168.312 108.781C168.938 108.182 169.276 107.857 169.328 107.805C169.667 111.633 171.242 113.547 174.055 113.547C174.758 113.547 175.565 113.365 176.477 113C177.388 112.635 178.299 111.919 179.211 110.852C180.148 109.784 180.734 109.081 180.969 108.742C181.229 108.378 181.607 107.818 182.102 107.062C182.596 106.281 182.961 105.747 183.195 105.461C182.857 104.732 182.206 104.315 181.242 104.211C179.81 106.398 178.352 107.466 176.867 107.414C175.799 107.362 175.266 106.607 175.266 105.148V88.9375C175.266 84.7708 174.445 81.8281 172.805 80.1094C171.19 78.3646 168.404 77.4922 164.445 77.4922C160.878 77.4922 157.779 78.4167 155.148 80.2656C152.544 82.0885 151.242 84.4453 151.242 87.3359C151.242 88.8203 151.698 89.9792 152.609 90.8125C153.521 91.6198 154.562 92.0234 155.734 92.0234C156.099 91.5026 156.099 90.8906 155.734 90.1875ZM217.844 111.203C217.531 111.802 217.531 112.44 217.844 113.117C224.615 112.961 231.398 112.961 238.195 113.117C238.56 112.492 238.56 111.854 238.195 111.203C231.841 110.891 228.638 109.641 228.586 107.453L228.195 87.8047C228.065 84.237 227.479 81.6328 226.438 79.9922C225.422 78.3255 223.625 77.4922 221.047 77.4922C216.724 77.4922 211.581 80.474 205.617 86.4375V78.6641C205.409 78.2474 204.953 77.9089 204.25 77.6484C200.63 79.3411 196.867 80.4089 192.961 80.8516C192.805 81.4766 192.805 82.0885 192.961 82.6875C195.956 82.8438 198.169 83.3776 199.602 84.2891C199.888 92.0755 199.888 99.7969 199.602 107.453C199.549 109.38 197.31 110.63 192.883 111.203C192.57 111.802 192.57 112.44 192.883 113.117C199.654 112.857 206.464 112.857 213.312 113.117C213.625 112.44 213.625 111.802 213.312 111.203C208.443 110.682 205.982 109.432 205.93 107.453C205.721 102.036 205.617 95.8646 205.617 88.9375C210.852 84.3281 214.953 82.0234 217.922 82.0234C220.76 82.0234 222.18 84.3802 222.18 89.0938L222.102 107.453C222.102 108.729 221.711 109.628 220.93 110.148C220.148 110.643 219.12 110.995 217.844 111.203ZM216.594 114.484C215.943 112.948 215.943 111.372 216.594 109.758C217.427 109.758 218.286 109.536 219.172 109.094C220.057 108.625 220.5 108.078 220.5 107.453L220.578 89.0938C220.578 86.2552 220.018 84.5234 218.898 83.8984C216.971 84.3672 214.38 85.7734 211.125 88.1172C211.125 95.2786 211.229 101.698 211.438 107.375C211.568 108.755 212.609 109.549 214.562 109.758C215.214 111.372 215.214 112.948 214.562 114.484C206.932 114.224 199.263 114.224 191.555 114.484C190.904 112.948 190.904 111.372 191.555 109.758C195.799 109.185 197.948 108.391 198 107.375C198.286 100.031 198.286 92.6484 198 85.2266C196.255 84.7057 194.107 84.3672 191.555 84.2109C190.956 82.6484 190.956 80.9948 191.555 79.25C195.487 79.0417 199.914 77.8698 204.836 75.7344C207.648 75.9427 209.745 76.7891 211.125 78.2734V79.5625C214.823 77.1146 219.068 75.8906 223.859 75.8906C227.375 75.8906 229.875 76.8542 231.359 78.7812C232.87 80.6823 233.651 83.6901 233.703 87.8047C233.807 98.1432 233.938 104.693 234.094 107.453C234.146 108.521 235.982 109.289 239.602 109.758C240.201 111.477 240.148 113.052 239.445 114.484C231.815 114.328 224.198 114.328 216.594 114.484ZM251.164 113.469C249.914 113.885 248.69 114.393 247.492 114.992C246.268 114.237 245.461 113.469 245.07 112.688C245.122 112.531 245.201 111.997 245.305 111.086C245.409 110.174 245.513 109.107 245.617 107.883C245.747 106.659 245.852 105.396 245.93 104.094C246.008 102.792 246.047 101.685 246.047 100.773C247.271 100.201 249.159 99.9141 251.711 99.9141C251.997 99.9141 252.284 99.9141 252.57 99.9141C252.857 99.9141 253.156 99.9271 253.469 99.9531C255.344 106.047 257.909 109.354 261.164 109.875C262.492 109.667 263.508 109.185 264.211 108.43C264.94 107.648 265.305 106.776 265.305 105.812C265.305 105.109 265.109 104.458 264.719 103.859C264.328 103.234 263.807 102.661 263.156 102.141C262.505 101.62 261.737 101.138 260.852 100.695C259.992 100.253 259.081 99.8229 258.117 99.4062C257.154 98.9635 256.177 98.5469 255.188 98.1562C254.198 97.7396 253.247 97.3099 252.336 96.8672C251.372 96.4245 250.461 95.8906 249.602 95.2656C248.742 94.6146 247.987 93.8854 247.336 93.0781C246.685 92.2448 246.164 91.3333 245.773 90.3438C245.409 89.3542 245.227 88.2865 245.227 87.1406C245.227 85.9167 245.435 84.6406 245.852 83.3125C246.268 81.9844 246.984 80.7734 248 79.6797C249.016 78.5859 250.383 77.6875 252.102 76.9844C253.82 76.2552 255.982 75.8906 258.586 75.8906C261.477 75.8906 263.612 76.0469 264.992 76.3594L266.438 75.8906H269.094C269.432 78.1042 269.836 80.1745 270.305 82.1016C270.799 84.0286 271.346 85.8255 271.945 87.4922C270.826 88.612 269.471 89.1719 267.883 89.1719C266.997 88.1302 266.177 87.1927 265.422 86.3594C264.667 85.5 263.938 84.7578 263.234 84.1328C262.557 83.5078 261.88 83 261.203 82.6094C260.552 82.2188 259.875 81.9453 259.172 81.7891C257.453 82.0755 256.594 82.8568 256.594 84.1328C256.594 85.1484 257.036 86.0339 257.922 86.7891C258.807 87.5443 259.914 88.2344 261.242 88.8594C262.57 89.4844 264.016 90.0833 265.578 90.6562C267.167 91.2031 268.664 91.7891 270.07 92.4141C271.086 92.8568 272.036 93.4297 272.922 94.1328C273.833 94.8359 274.628 95.6562 275.305 96.5938C275.982 97.5052 276.516 98.5339 276.906 99.6797C277.297 100.799 277.492 102.01 277.492 103.312C277.492 105.24 276.997 106.971 276.008 108.508C275.044 110.044 273.755 111.346 272.141 112.414C270.552 113.482 268.729 114.302 266.672 114.875C264.615 115.448 262.518 115.734 260.383 115.734C256.711 115.734 253.638 114.979 251.164 113.469ZM260.109 114.133C263.365 114.133 266.151 113.169 268.469 111.242C270.786 109.315 271.945 107.154 271.945 104.758C271.945 102.414 271.229 100.396 269.797 98.7031C268.365 96.9844 266.633 95.6562 264.602 94.7188C262.57 93.7812 260.526 92.9219 258.469 92.1406C256.411 91.3333 254.667 90.3958 253.234 89.3281C251.802 88.2604 251.086 87.0104 251.086 85.5781C251.086 83.7552 251.763 82.375 253.117 81.4375C254.471 80.5 256.06 80.0312 257.883 80.0312C259.81 80.0312 261.529 80.6302 263.039 81.8281C264.549 83.026 266.398 84.9401 268.586 87.5703C269.289 87.5703 269.797 87.401 270.109 87.0625C269.146 84.3021 267.714 82.0234 265.812 80.2266C263.938 78.4036 261.529 77.4922 258.586 77.4922C254.393 77.4922 251.385 78.4948 249.562 80.5C247.74 82.4792 246.828 84.6927 246.828 87.1406C246.828 89.224 247.518 91.0078 248.898 92.4922C250.305 93.9505 251.984 95.0833 253.938 95.8906C255.917 96.6719 257.883 97.4531 259.836 98.2344C261.789 99.0156 263.456 100.031 264.836 101.281C266.216 102.531 266.906 104.042 266.906 105.812C266.906 107.297 266.268 108.625 264.992 109.797C263.716 110.969 261.932 111.555 259.641 111.555C256.88 111.555 254.745 110.682 253.234 108.938C251.75 107.167 250.5 104.706 249.484 101.555C248.573 101.555 247.961 101.633 247.648 101.789C247.648 103.664 247.557 105.812 247.375 108.234C247.193 110.656 247.01 112.089 246.828 112.531C247.01 112.792 247.258 113.026 247.57 113.234C248.638 112.479 249.458 111.685 250.031 110.852C252.323 112.128 254.107 112.987 255.383 113.43C256.685 113.898 258.26 114.133 260.109 114.133ZM294.914 58.1172C300.799 58.1172 303.742 60.2526 303.742 64.5234C303.742 68.7943 300.799 70.9297 294.914 70.9297C294.029 70.9297 293.195 70.7604 292.414 70.4219C291.659 70.0833 290.995 69.6276 290.422 69.0547C289.849 68.4557 289.393 67.7656 289.055 66.9844C288.716 66.2031 288.547 65.3828 288.547 64.5234C288.547 63.6641 288.716 62.8438 289.055 62.0625C289.393 61.2812 289.849 60.6042 290.422 60.0312C290.995 59.4323 291.659 58.9635 292.414 58.625C293.195 58.2865 294.029 58.1172 294.914 58.1172ZM291.32 61.1641C290.539 62.0755 290.148 63.1953 290.148 64.5234C290.148 65.2005 290.253 65.8385 290.461 66.4375C290.695 67.0104 291.008 67.5182 291.398 67.9609C291.789 68.3776 292.232 68.7161 292.727 68.9766C293.247 69.2109 293.794 69.3281 294.367 69.3281C294.914 69.3281 295.448 69.2109 295.969 68.9766C296.49 68.7161 296.945 68.3776 297.336 67.9609C297.727 67.5182 298.039 67.0104 298.273 66.4375C298.508 65.8385 298.625 65.2005 298.625 64.5234C298.625 63.8464 298.508 63.2214 298.273 62.6484C298.039 62.0495 297.727 61.5417 297.336 61.125C296.945 60.6823 296.49 60.3438 295.969 60.1094C295.448 59.849 294.914 59.7188 294.367 59.7188C293.82 59.7188 293.286 59.8359 292.766 60.0703C292.245 60.3047 291.763 60.6693 291.32 61.1641ZM307.102 111.203C300.904 110.63 297.779 109.38 297.727 107.453C297.466 99.6406 297.362 90.0443 297.414 78.6641C297.206 78.2474 296.75 77.9089 296.047 77.6484C292.427 79.3411 288.664 80.4089 284.758 80.8516C284.602 81.4766 284.602 82.0885 284.758 82.6875C287.701 82.8438 289.94 83.3776 291.477 84.2891C291.711 94.0026 291.685 101.724 291.398 107.453C291.346 109.38 289.133 110.63 284.758 111.203C284.497 111.854 284.497 112.492 284.758 113.117C292.232 112.961 299.68 112.961 307.102 113.117C307.362 112.492 307.362 111.854 307.102 111.203ZM308.547 109.758C308.964 111.372 308.964 112.948 308.547 114.484C300.161 114.224 291.763 114.224 283.352 114.484C282.909 112.948 282.909 111.372 283.352 109.758C287.596 109.341 289.745 108.547 289.797 107.375C290.135 100.083 290.161 92.7005 289.875 85.2266C288.13 84.7057 285.956 84.3672 283.352 84.2109C282.753 82.6484 282.753 80.9948 283.352 79.25C287.284 79.0417 291.711 77.8698 296.633 75.7344C299.445 75.9427 301.542 76.7891 302.922 78.2734C302.818 91.0859 302.922 100.786 303.234 107.375C303.312 108.547 305.083 109.341 308.547 109.758Z" fill="black"/>
<line x1="240" y1="144" x2="340" y2="144" stroke="black" stroke-width="4"/>
<line x1="40" y1="144" x2="135" y2="144" stroke="black" stroke-width="4"/>
<line x1="346" y1="135" x2="346" y2="35" stroke="black" stroke-width="4"/>
<line x1="34" y1="135" x2="34" y2="35" stroke="black" stroke-width="4"/>
<line x1="40" y1="29" x2="340" y2="29" stroke="black" stroke-width="4"/>
<mask id="path-7-outside-1_5_46" maskUnits="userSpaceOnUse" x="141" y="137" width="94" height="18" fill="black">
<rect fill="white" x="141" y="137" width="94" height="18"/>
<path d="M154.615 150H151.639V149.872C151.639 149.595 151.719 149.413 151.879 149.328C151.954 149.296 152.044 149.275 152.151 149.264L152.823 149.232L152.215 140.864L149.223 148.032C148.956 148.096 148.716 148.112 148.503 148.08L145.383 141.136L144.775 149.2L145.943 149.296C145.986 149.765 145.836 150 145.495 150H142.599V149.872C142.599 149.595 142.674 149.413 142.823 149.328C142.898 149.296 142.988 149.275 143.095 149.264L143.815 149.232L144.551 139.952L143.415 139.856C143.362 139.376 143.511 139.136 143.863 139.136H145.767L148.999 146.4L151.975 139.136H153.959C154.3 139.136 154.45 139.376 154.407 139.856L153.287 139.952L154.007 149.168L155.063 149.296C155.106 149.765 154.956 150 154.615 150ZM163.041 149.504C163.041 150.005 162.71 150.256 162.049 150.256C161.388 150.256 161.004 149.92 160.897 149.248C160.214 149.909 159.393 150.24 158.433 150.24C157.697 150.24 157.11 150.053 156.673 149.68C156.246 149.296 156.033 148.779 156.033 148.128C156.033 147.477 156.273 146.928 156.753 146.48C157.233 146.032 158.028 145.808 159.137 145.808C159.788 145.808 160.364 145.883 160.865 146.032V144.768C160.865 144.16 160.71 143.675 160.401 143.312C160.102 142.939 159.66 142.752 159.073 142.752C158.486 142.752 158.065 142.912 157.809 143.232C157.564 143.541 157.425 143.904 157.393 144.32C157.137 144.341 156.924 144.288 156.753 144.16C156.582 144.032 156.497 143.824 156.497 143.536C156.497 143.077 156.732 142.699 157.201 142.4C157.67 142.091 158.278 141.936 159.025 141.936C159.676 141.936 160.294 142.096 160.881 142.416C161.212 142.587 161.478 142.869 161.681 143.264C161.884 143.659 161.985 144.139 161.985 144.704V149.376L163.041 149.504ZM160.865 146.992C160.374 146.725 159.804 146.592 159.153 146.592C158.502 146.592 158.022 146.715 157.713 146.96C157.414 147.205 157.265 147.541 157.265 147.968C157.265 148.395 157.398 148.736 157.665 148.992C157.932 149.237 158.3 149.36 158.769 149.36C159.516 149.36 160.214 149.072 160.865 148.496V146.992ZM172.304 150H169.328V149.872C169.328 149.616 169.403 149.456 169.552 149.392C169.627 149.349 169.717 149.323 169.824 149.312L170.528 149.28V145.136C170.528 143.643 169.936 142.896 168.752 142.896C168.315 142.896 167.92 142.981 167.568 143.152C167.216 143.323 166.816 143.595 166.368 143.968V149.248L167.504 149.344C167.547 149.781 167.403 150 167.072 150H164.064V149.872C164.064 149.531 164.235 149.344 164.576 149.312L165.264 149.28V142.976L164.432 142.88C164.176 142.859 164.048 142.64 164.048 142.224L166.112 141.952L166.32 143.168H166.368C167.232 142.347 168.123 141.936 169.04 141.936C169.755 141.936 170.363 142.187 170.864 142.688C171.376 143.189 171.632 143.963 171.632 145.008V149.248L172.752 149.344C172.795 149.781 172.645 150 172.304 150ZM173.797 144.176C173.807 143.483 174.09 142.933 174.645 142.528C175.199 142.123 175.802 141.925 176.453 141.936C177.114 141.947 177.658 142.064 178.085 142.288C178.511 142.501 178.719 142.821 178.709 143.248C178.698 143.536 178.597 143.744 178.405 143.872C178.213 144 178.005 144.053 177.781 144.032C177.791 143.659 177.674 143.355 177.429 143.12C177.194 142.885 176.847 142.763 176.389 142.752C175.93 142.741 175.546 142.848 175.237 143.072C174.938 143.285 174.783 143.563 174.773 143.904C174.762 144.245 174.911 144.523 175.221 144.736C175.541 144.939 175.989 145.152 176.565 145.376C177.141 145.6 177.53 145.765 177.733 145.872C177.946 145.968 178.175 146.101 178.421 146.272C178.879 146.592 179.098 147.077 179.077 147.728C179.066 148.379 178.783 148.965 178.229 149.488C177.674 150 176.933 150.251 176.005 150.24C175.343 150.219 174.762 150.08 174.261 149.824C173.759 149.557 173.509 149.195 173.509 148.736C173.519 148.491 173.599 148.299 173.749 148.16C173.909 148.011 174.101 147.941 174.325 147.952C174.41 148.389 174.623 148.741 174.965 149.008C175.317 149.275 175.749 149.413 176.261 149.424C176.773 149.424 177.199 149.307 177.541 149.072C177.882 148.827 178.058 148.507 178.069 148.112C178.079 147.717 177.957 147.419 177.701 147.216C177.455 147.013 177.098 146.827 176.629 146.656C176.159 146.475 175.829 146.347 175.637 146.272C175.455 146.197 175.226 146.085 174.949 145.936C174.682 145.787 174.474 145.637 174.325 145.488C173.973 145.115 173.797 144.677 173.797 144.176ZM183.261 150H180.221V149.872C180.221 149.616 180.296 149.456 180.445 149.392C180.52 149.349 180.61 149.323 180.717 149.312L181.389 149.28V142.944L180.557 142.88C180.301 142.848 180.173 142.619 180.173 142.192L182.493 141.936V149.248L183.709 149.344C183.752 149.781 183.602 150 183.261 150ZM182.381 140.48C182.232 140.619 182.04 140.688 181.805 140.688C181.57 140.688 181.378 140.619 181.229 140.48C181.09 140.331 181.021 140.139 181.021 139.904C181.021 139.669 181.09 139.477 181.229 139.328C181.378 139.179 181.57 139.104 181.805 139.104C182.04 139.104 182.232 139.179 182.381 139.328C182.53 139.477 182.605 139.669 182.605 139.904C182.605 140.139 182.53 140.331 182.381 140.48ZM194.887 139.6C195.228 139.888 195.399 140.224 195.399 140.608C195.399 140.992 195.297 141.269 195.095 141.44C194.903 141.6 194.668 141.675 194.391 141.664C194.391 140.427 193.74 139.808 192.439 139.808C191.831 139.808 191.324 139.952 190.919 140.24C190.524 140.528 190.327 140.928 190.327 141.44C190.327 142.048 190.62 142.539 191.207 142.912C191.527 143.115 191.788 143.264 191.991 143.36C192.193 143.456 192.513 143.6 192.951 143.792C193.388 143.973 193.724 144.123 193.959 144.24C194.204 144.357 194.471 144.512 194.759 144.704C195.047 144.885 195.26 145.061 195.399 145.232C195.74 145.669 195.911 146.176 195.911 146.752C195.911 147.712 195.548 148.533 194.823 149.216C194.108 149.899 193.164 150.24 191.991 150.24C191.148 150.24 190.401 150.069 189.751 149.728C189.111 149.387 188.791 148.933 188.791 148.368C188.791 148.091 188.871 147.861 189.031 147.68C189.201 147.499 189.431 147.408 189.719 147.408C189.847 148.048 190.129 148.533 190.567 148.864C191.004 149.195 191.585 149.36 192.311 149.36C193.036 149.36 193.633 149.163 194.103 148.768C194.572 148.363 194.807 147.829 194.807 147.168C194.807 146.549 194.588 146.08 194.151 145.76C193.809 145.504 193.441 145.296 193.047 145.136C192.663 144.965 192.327 144.816 192.039 144.688C191.751 144.56 191.457 144.421 191.159 144.272C190.871 144.112 190.556 143.909 190.215 143.664C189.553 143.184 189.223 142.533 189.223 141.712C189.223 140.891 189.537 140.229 190.167 139.728C190.807 139.216 191.596 138.949 192.535 138.928C193.527 138.907 194.311 139.131 194.887 139.6ZM203.208 145.792H198.184C198.173 145.899 198.168 146.064 198.168 146.288C198.168 147.195 198.36 147.931 198.744 148.496C199.128 149.051 199.725 149.328 200.536 149.328C201.347 149.328 202.12 149.04 202.856 148.464C202.984 148.571 203.048 148.704 203.048 148.864C203.048 149.163 202.755 149.467 202.168 149.776C201.592 150.085 200.941 150.24 200.216 150.24C199.224 150.24 198.429 149.915 197.832 149.264C197.245 148.613 196.952 147.621 196.952 146.288C196.952 144.955 197.304 143.899 198.008 143.12C198.712 142.331 199.544 141.936 200.504 141.936C201.464 141.936 202.157 142.24 202.584 142.848C203.011 143.456 203.219 144.181 203.208 145.024V145.792ZM202.04 145.072C202.04 144.357 201.901 143.792 201.624 143.376C201.347 142.949 200.941 142.736 200.408 142.736C199.885 142.736 199.437 142.944 199.064 143.36C198.691 143.776 198.429 144.347 198.28 145.072H202.04ZM212.775 150H209.735V149.872C209.735 149.531 209.906 149.344 210.247 149.312L210.903 149.28V145.264C210.903 144.485 210.738 143.904 210.407 143.52C210.076 143.125 209.644 142.928 209.111 142.928C208.588 142.928 208.156 143.013 207.815 143.184C207.484 143.355 207.127 143.611 206.743 143.952V149.248L207.959 149.344C208.002 149.781 207.852 150 207.511 150H204.471V149.872C204.471 149.616 204.546 149.456 204.695 149.392C204.77 149.349 204.86 149.323 204.967 149.312L205.639 149.28V139.904L204.807 139.824C204.551 139.792 204.423 139.563 204.423 139.136L206.743 138.832V143.072C207.479 142.315 208.316 141.936 209.255 141.936C210.002 141.936 210.642 142.197 211.175 142.72C211.708 143.232 211.98 144.048 211.991 145.168L212.007 149.248L213.207 149.344C213.25 149.781 213.106 150 212.775 150ZM216.777 148.48L217.257 148.496C218.559 148.517 219.476 148.672 220.009 148.96C220.553 149.237 220.825 149.755 220.825 150.512C220.825 151.44 220.484 152.187 219.801 152.752C219.119 153.328 218.239 153.616 217.161 153.616C216.095 153.616 215.284 153.413 214.729 153.008C214.175 152.613 213.897 152.101 213.897 151.472C213.897 150.661 214.319 149.941 215.161 149.312C214.895 149.173 214.761 148.933 214.761 148.592C214.761 148.24 215.028 147.787 215.561 147.232C214.751 146.816 214.319 146.101 214.265 145.088C214.212 144.235 214.452 143.499 214.985 142.88C215.519 142.251 216.244 141.936 217.161 141.936C217.769 141.936 218.308 142.085 218.777 142.384L220.713 141.872C220.809 142 220.863 142.16 220.873 142.352C220.884 142.544 220.831 142.693 220.713 142.8C220.543 142.885 220.084 142.917 219.337 142.896C219.679 143.344 219.839 143.963 219.817 144.752C219.807 145.531 219.551 146.192 219.049 146.736C218.559 147.28 217.865 147.552 216.969 147.552C216.724 147.552 216.479 147.525 216.233 147.472C215.807 147.973 215.7 148.272 215.913 148.368C216.105 148.443 216.393 148.48 216.777 148.48ZM215.801 143.296C215.503 143.691 215.353 144.176 215.353 144.752C215.353 145.328 215.497 145.819 215.785 146.224C216.084 146.629 216.495 146.827 217.017 146.816C217.551 146.805 217.967 146.597 218.265 146.192C218.575 145.787 218.729 145.301 218.729 144.736C218.729 144.16 218.585 143.675 218.297 143.28C218.009 142.875 217.599 142.677 217.065 142.688C216.532 142.699 216.111 142.901 215.801 143.296ZM214.841 151.072C214.841 151.605 215.065 152 215.513 152.256C215.961 152.523 216.58 152.656 217.369 152.656C218.159 152.656 218.793 152.475 219.273 152.112C219.753 151.749 219.993 151.312 219.993 150.8C219.993 150.299 219.711 149.968 219.145 149.808C218.655 149.68 218.025 149.605 217.257 149.584C216.5 149.563 215.993 149.531 215.737 149.488C215.14 150.011 214.841 150.539 214.841 151.072ZM228.76 149.504C228.76 150.005 228.429 150.256 227.768 150.256C227.106 150.256 226.722 149.92 226.616 149.248C225.933 149.909 225.112 150.24 224.152 150.24C223.416 150.24 222.829 150.053 222.392 149.68C221.965 149.296 221.752 148.779 221.752 148.128C221.752 147.477 221.992 146.928 222.472 146.48C222.952 146.032 223.746 145.808 224.856 145.808C225.506 145.808 226.082 145.883 226.584 146.032V144.768C226.584 144.16 226.429 143.675 226.12 143.312C225.821 142.939 225.378 142.752 224.792 142.752C224.205 142.752 223.784 142.912 223.528 143.232C223.282 143.541 223.144 143.904 223.112 144.32C222.856 144.341 222.642 144.288 222.472 144.16C222.301 144.032 222.216 143.824 222.216 143.536C222.216 143.077 222.45 142.699 222.92 142.4C223.389 142.091 223.997 141.936 224.744 141.936C225.394 141.936 226.013 142.096 226.6 142.416C226.93 142.587 227.197 142.869 227.4 143.264C227.602 143.659 227.704 144.139 227.704 144.704V149.376L228.76 149.504ZM226.584 146.992C226.093 146.725 225.522 146.592 224.872 146.592C224.221 146.592 223.741 146.715 223.432 146.96C223.133 147.205 222.984 147.541 222.984 147.968C222.984 148.395 223.117 148.736 223.384 148.992C223.65 149.237 224.018 149.36 224.488 149.36C225.234 149.36 225.933 149.072 226.584 148.496V146.992ZM232.791 150H229.783V149.872C229.783 149.531 229.954 149.344 230.295 149.312L230.983 149.28V139.888L230.151 139.808C229.895 139.776 229.767 139.552 229.767 139.136L232.087 138.832V149.248L233.223 149.344C233.266 149.781 233.122 150 232.791 150Z"/>
</mask>
<path d="M154.615 150H151.639V149.872C151.639 149.595 151.719 149.413 151.879 149.328C151.954 149.296 152.044 149.275 152.151 149.264L152.823 149.232L152.215 140.864L149.223 148.032C148.956 148.096 148.716 148.112 148.503 148.08L145.383 141.136L144.775 149.2L145.943 149.296C145.986 149.765 145.836 150 145.495 150H142.599V149.872C142.599 149.595 142.674 149.413 142.823 149.328C142.898 149.296 142.988 149.275 143.095 149.264L143.815 149.232L144.551 139.952L143.415 139.856C143.362 139.376 143.511 139.136 143.863 139.136H145.767L148.999 146.4L151.975 139.136H153.959C154.3 139.136 154.45 139.376 154.407 139.856L153.287 139.952L154.007 149.168L155.063 149.296C155.106 149.765 154.956 150 154.615 150ZM163.041 149.504C163.041 150.005 162.71 150.256 162.049 150.256C161.388 150.256 161.004 149.92 160.897 149.248C160.214 149.909 159.393 150.24 158.433 150.24C157.697 150.24 157.11 150.053 156.673 149.68C156.246 149.296 156.033 148.779 156.033 148.128C156.033 147.477 156.273 146.928 156.753 146.48C157.233 146.032 158.028 145.808 159.137 145.808C159.788 145.808 160.364 145.883 160.865 146.032V144.768C160.865 144.16 160.71 143.675 160.401 143.312C160.102 142.939 159.66 142.752 159.073 142.752C158.486 142.752 158.065 142.912 157.809 143.232C157.564 143.541 157.425 143.904 157.393 144.32C157.137 144.341 156.924 144.288 156.753 144.16C156.582 144.032 156.497 143.824 156.497 143.536C156.497 143.077 156.732 142.699 157.201 142.4C157.67 142.091 158.278 141.936 159.025 141.936C159.676 141.936 160.294 142.096 160.881 142.416C161.212 142.587 161.478 142.869 161.681 143.264C161.884 143.659 161.985 144.139 161.985 144.704V149.376L163.041 149.504ZM160.865 146.992C160.374 146.725 159.804 146.592 159.153 146.592C158.502 146.592 158.022 146.715 157.713 146.96C157.414 147.205 157.265 147.541 157.265 147.968C157.265 148.395 157.398 148.736 157.665 148.992C157.932 149.237 158.3 149.36 158.769 149.36C159.516 149.36 160.214 149.072 160.865 148.496V146.992ZM172.304 150H169.328V149.872C169.328 149.616 169.403 149.456 169.552 149.392C169.627 149.349 169.717 149.323 169.824 149.312L170.528 149.28V145.136C170.528 143.643 169.936 142.896 168.752 142.896C168.315 142.896 167.92 142.981 167.568 143.152C167.216 143.323 166.816 143.595 166.368 143.968V149.248L167.504 149.344C167.547 149.781 167.403 150 167.072 150H164.064V149.872C164.064 149.531 164.235 149.344 164.576 149.312L165.264 149.28V142.976L164.432 142.88C164.176 142.859 164.048 142.64 164.048 142.224L166.112 141.952L166.32 143.168H166.368C167.232 142.347 168.123 141.936 169.04 141.936C169.755 141.936 170.363 142.187 170.864 142.688C171.376 143.189 171.632 143.963 171.632 145.008V149.248L172.752 149.344C172.795 149.781 172.645 150 172.304 150ZM173.797 144.176C173.807 143.483 174.09 142.933 174.645 142.528C175.199 142.123 175.802 141.925 176.453 141.936C177.114 141.947 177.658 142.064 178.085 142.288C178.511 142.501 178.719 142.821 178.709 143.248C178.698 143.536 178.597 143.744 178.405 143.872C178.213 144 178.005 144.053 177.781 144.032C177.791 143.659 177.674 143.355 177.429 143.12C177.194 142.885 176.847 142.763 176.389 142.752C175.93 142.741 175.546 142.848 175.237 143.072C174.938 143.285 174.783 143.563 174.773 143.904C174.762 144.245 174.911 144.523 175.221 144.736C175.541 144.939 175.989 145.152 176.565 145.376C177.141 145.6 177.53 145.765 177.733 145.872C177.946 145.968 178.175 146.101 178.421 146.272C178.879 146.592 179.098 147.077 179.077 147.728C179.066 148.379 178.783 148.965 178.229 149.488C177.674 150 176.933 150.251 176.005 150.24C175.343 150.219 174.762 150.08 174.261 149.824C173.759 149.557 173.509 149.195 173.509 148.736C173.519 148.491 173.599 148.299 173.749 148.16C173.909 148.011 174.101 147.941 174.325 147.952C174.41 148.389 174.623 148.741 174.965 149.008C175.317 149.275 175.749 149.413 176.261 149.424C176.773 149.424 177.199 149.307 177.541 149.072C177.882 148.827 178.058 148.507 178.069 148.112C178.079 147.717 177.957 147.419 177.701 147.216C177.455 147.013 177.098 146.827 176.629 146.656C176.159 146.475 175.829 146.347 175.637 146.272C175.455 146.197 175.226 146.085 174.949 145.936C174.682 145.787 174.474 145.637 174.325 145.488C173.973 145.115 173.797 144.677 173.797 144.176ZM183.261 150H180.221V149.872C180.221 149.616 180.296 149.456 180.445 149.392C180.52 149.349 180.61 149.323 180.717 149.312L181.389 149.28V142.944L180.557 142.88C180.301 142.848 180.173 142.619 180.173 142.192L182.493 141.936V149.248L183.709 149.344C183.752 149.781 183.602 150 183.261 150ZM182.381 140.48C182.232 140.619 182.04 140.688 181.805 140.688C181.57 140.688 181.378 140.619 181.229 140.48C181.09 140.331 181.021 140.139 181.021 139.904C181.021 139.669 181.09 139.477 181.229 139.328C181.378 139.179 181.57 139.104 181.805 139.104C182.04 139.104 182.232 139.179 182.381 139.328C182.53 139.477 182.605 139.669 182.605 139.904C182.605 140.139 182.53 140.331 182.381 140.48ZM194.887 139.6C195.228 139.888 195.399 140.224 195.399 140.608C195.399 140.992 195.297 141.269 195.095 141.44C194.903 141.6 194.668 141.675 194.391 141.664C194.391 140.427 193.74 139.808 192.439 139.808C191.831 139.808 191.324 139.952 190.919 140.24C190.524 140.528 190.327 140.928 190.327 141.44C190.327 142.048 190.62 142.539 191.207 142.912C191.527 143.115 191.788 143.264 191.991 143.36C192.193 143.456 192.513 143.6 192.951 143.792C193.388 143.973 193.724 144.123 193.959 144.24C194.204 144.357 194.471 144.512 194.759 144.704C195.047 144.885 195.26 145.061 195.399 145.232C195.74 145.669 195.911 146.176 195.911 146.752C195.911 147.712 195.548 148.533 194.823 149.216C194.108 149.899 193.164 150.24 191.991 150.24C191.148 150.24 190.401 150.069 189.751 149.728C189.111 149.387 188.791 148.933 188.791 148.368C188.791 148.091 188.871 147.861 189.031 147.68C189.201 147.499 189.431 147.408 189.719 147.408C189.847 148.048 190.129 148.533 190.567 148.864C191.004 149.195 191.585 149.36 192.311 149.36C193.036 149.36 193.633 149.163 194.103 148.768C194.572 148.363 194.807 147.829 194.807 147.168C194.807 146.549 194.588 146.08 194.151 145.76C193.809 145.504 193.441 145.296 193.047 145.136C192.663 144.965 192.327 144.816 192.039 144.688C191.751 144.56 191.457 144.421 191.159 144.272C190.871 144.112 190.556 143.909 190.215 143.664C189.553 143.184 189.223 142.533 189.223 141.712C189.223 140.891 189.537 140.229 190.167 139.728C190.807 139.216 191.596 138.949 192.535 138.928C193.527 138.907 194.311 139.131 194.887 139.6ZM203.208 145.792H198.184C198.173 145.899 198.168 146.064 198.168 146.288C198.168 147.195 198.36 147.931 198.744 148.496C199.128 149.051 199.725 149.328 200.536 149.328C201.347 149.328 202.12 149.04 202.856 148.464C202.984 148.571 203.048 148.704 203.048 148.864C203.048 149.163 202.755 149.467 202.168 149.776C201.592 150.085 200.941 150.24 200.216 150.24C199.224 150.24 198.429 149.915 197.832 149.264C197.245 148.613 196.952 147.621 196.952 146.288C196.952 144.955 197.304 143.899 198.008 143.12C198.712 142.331 199.544 141.936 200.504 141.936C201.464 141.936 202.157 142.24 202.584 142.848C203.011 143.456 203.219 144.181 203.208 145.024V145.792ZM202.04 145.072C202.04 144.357 201.901 143.792 201.624 143.376C201.347 142.949 200.941 142.736 200.408 142.736C199.885 142.736 199.437 142.944 199.064 143.36C198.691 143.776 198.429 144.347 198.28 145.072H202.04ZM212.775 150H209.735V149.872C209.735 149.531 209.906 149.344 210.247 149.312L210.903 149.28V145.264C210.903 144.485 210.738 143.904 210.407 143.52C210.076 143.125 209.644 142.928 209.111 142.928C208.588 142.928 208.156 143.013 207.815 143.184C207.484 143.355 207.127 143.611 206.743 143.952V149.248L207.959 149.344C208.002 149.781 207.852 150 207.511 150H204.471V149.872C204.471 149.616 204.546 149.456 204.695 149.392C204.77 149.349 204.86 149.323 204.967 149.312L205.639 149.28V139.904L204.807 139.824C204.551 139.792 204.423 139.563 204.423 139.136L206.743 138.832V143.072C207.479 142.315 208.316 141.936 209.255 141.936C210.002 141.936 210.642 142.197 211.175 142.72C211.708 143.232 211.98 144.048 211.991 145.168L212.007 149.248L213.207 149.344C213.25 149.781 213.106 150 212.775 150ZM216.777 148.48L217.257 148.496C218.559 148.517 219.476 148.672 220.009 148.96C220.553 149.237 220.825 149.755 220.825 150.512C220.825 151.44 220.484 152.187 219.801 152.752C219.119 153.328 218.239 153.616 217.161 153.616C216.095 153.616 215.284 153.413 214.729 153.008C214.175 152.613 213.897 152.101 213.897 151.472C213.897 150.661 214.319 149.941 215.161 149.312C214.895 149.173 214.761 148.933 214.761 148.592C214.761 148.24 215.028 147.787 215.561 147.232C214.751 146.816 214.319 146.101 214.265 145.088C214.212 144.235 214.452 143.499 214.985 142.88C215.519 142.251 216.244 141.936 217.161 141.936C217.769 141.936 218.308 142.085 218.777 142.384L220.713 141.872C220.809 142 220.863 142.16 220.873 142.352C220.884 142.544 220.831 142.693 220.713 142.8C220.543 142.885 220.084 142.917 219.337 142.896C219.679 143.344 219.839 143.963 219.817 144.752C219.807 145.531 219.551 146.192 219.049 146.736C218.559 147.28 217.865 147.552 216.969 147.552C216.724 147.552 216.479 147.525 216.233 147.472C215.807 147.973 215.7 148.272 215.913 148.368C216.105 148.443 216.393 148.48 216.777 148.48ZM215.801 143.296C215.503 143.691 215.353 144.176 215.353 144.752C215.353 145.328 215.497 145.819 215.785 146.224C216.084 146.629 216.495 146.827 217.017 146.816C217.551 146.805 217.967 146.597 218.265 146.192C218.575 145.787 218.729 145.301 218.729 144.736C218.729 144.16 218.585 143.675 218.297 143.28C218.009 142.875 217.599 142.677 217.065 142.688C216.532 142.699 216.111 142.901 215.801 143.296ZM214.841 151.072C214.841 151.605 215.065 152 215.513 152.256C215.961 152.523 216.58 152.656 217.369 152.656C218.159 152.656 218.793 152.475 219.273 152.112C219.753 151.749 219.993 151.312 219.993 150.8C219.993 150.299 219.711 149.968 219.145 149.808C218.655 149.68 218.025 149.605 217.257 149.584C216.5 149.563 215.993 149.531 215.737 149.488C215.14 150.011 214.841 150.539 214.841 151.072ZM228.76 149.504C228.76 150.005 228.429 150.256 227.768 150.256C227.106 150.256 226.722 149.92 226.616 149.248C225.933 149.909 225.112 150.24 224.152 150.24C223.416 150.24 222.829 150.053 222.392 149.68C221.965 149.296 221.752 148.779 221.752 148.128C221.752 147.477 221.992 146.928 222.472 146.48C222.952 146.032 223.746 145.808 224.856 145.808C225.506 145.808 226.082 145.883 226.584 146.032V144.768C226.584 144.16 226.429 143.675 226.12 143.312C225.821 142.939 225.378 142.752 224.792 142.752C224.205 142.752 223.784 142.912 223.528 143.232C223.282 143.541 223.144 143.904 223.112 144.32C222.856 144.341 222.642 144.288 222.472 144.16C222.301 144.032 222.216 143.824 222.216 143.536C222.216 143.077 222.45 142.699 222.92 142.4C223.389 142.091 223.997 141.936 224.744 141.936C225.394 141.936 226.013 142.096 226.6 142.416C226.93 142.587 227.197 142.869 227.4 143.264C227.602 143.659 227.704 144.139 227.704 144.704V149.376L228.76 149.504ZM226.584 146.992C226.093 146.725 225.522 146.592 224.872 146.592C224.221 146.592 223.741 146.715 223.432 146.96C223.133 147.205 222.984 147.541 222.984 147.968C222.984 148.395 223.117 148.736 223.384 148.992C223.65 149.237 224.018 149.36 224.488 149.36C225.234 149.36 225.933 149.072 226.584 148.496V146.992ZM232.791 150H229.783V149.872C229.783 149.531 229.954 149.344 230.295 149.312L230.983 149.28V139.888L230.151 139.808C229.895 139.776 229.767 139.552 229.767 139.136L232.087 138.832V149.248L233.223 149.344C233.266 149.781 233.122 150 232.791 150Z" fill="black"/>
<path d="M151.639 150H150.639V151H151.639V150ZM151.879 149.328L151.485 148.409L151.446 148.426L151.408 148.446L151.879 149.328ZM152.151 149.264L152.103 148.265L152.077 148.266L152.051 148.269L152.151 149.264ZM152.823 149.232L152.871 150.231L153.895 150.182L153.82 149.16L152.823 149.232ZM152.215 140.864L153.212 140.792L151.292 140.479L152.215 140.864ZM149.223 148.032L149.456 149.004L149.95 148.886L150.146 148.417L149.223 148.032ZM148.503 148.08L147.591 148.49L147.815 148.988L148.355 149.069L148.503 148.08ZM145.383 141.136L146.295 140.726L144.386 141.061L145.383 141.136ZM144.775 149.2L143.778 149.125L143.703 150.115L144.693 150.197L144.775 149.2ZM145.943 149.296L146.939 149.205L146.863 148.368L146.025 148.299L145.943 149.296ZM142.599 150H141.599V151H142.599V150ZM142.823 149.328L142.429 148.409L142.377 148.431L142.327 148.46L142.823 149.328ZM143.095 149.264L143.051 148.265L143.023 148.266L142.995 148.269L143.095 149.264ZM143.815 149.232L143.859 150.231L144.742 150.192L144.812 149.311L143.815 149.232ZM144.551 139.952L145.548 140.031L145.627 139.039L144.635 138.956L144.551 139.952ZM143.415 139.856L142.421 139.966L142.512 140.783L143.331 140.852L143.415 139.856ZM145.767 139.136L146.681 138.729L146.417 138.136H145.767V139.136ZM148.999 146.4L148.085 146.807L149.037 148.945L149.924 146.779L148.999 146.4ZM151.975 139.136V138.136H151.304L151.05 138.757L151.975 139.136ZM154.407 139.856L154.492 140.852L155.329 140.781L155.403 139.945L154.407 139.856ZM153.287 139.952L153.202 138.956L152.213 139.04L152.29 140.03L153.287 139.952ZM154.007 149.168L153.01 149.246L153.074 150.062L153.887 150.161L154.007 149.168ZM155.063 149.296L156.059 149.205L155.986 148.401L155.183 148.303L155.063 149.296ZM154.615 149H151.639V151H154.615V149ZM152.639 150V149.872H150.639V150H152.639ZM152.639 149.872C152.639 149.821 152.648 149.855 152.614 149.932C152.572 150.026 152.486 150.138 152.35 150.21L151.408 148.446C150.769 148.786 150.639 149.439 150.639 149.872H152.639ZM152.273 150.247C152.25 150.257 152.235 150.261 152.232 150.261C152.229 150.262 152.234 150.261 152.251 150.259L152.051 148.269C151.874 148.287 151.678 148.326 151.485 148.409L152.273 150.247ZM152.199 150.263L152.871 150.231L152.775 148.233L152.103 148.265L152.199 150.263ZM153.82 149.16L153.212 140.792L151.218 140.936L151.826 149.304L153.82 149.16ZM151.292 140.479L148.3 147.647L150.146 148.417L153.138 141.249L151.292 140.479ZM148.99 147.06C148.815 147.101 148.708 147.1 148.651 147.091L148.355 149.069C148.724 149.124 149.097 149.091 149.456 149.004L148.99 147.06ZM149.415 147.67L146.295 140.726L144.471 141.546L147.591 148.49L149.415 147.67ZM144.386 141.061L143.778 149.125L145.772 149.275L146.38 141.211L144.386 141.061ZM144.693 150.197L145.861 150.293L146.025 148.299L144.857 148.203L144.693 150.197ZM144.947 149.387C144.953 149.448 144.948 149.467 144.95 149.454C144.952 149.442 144.964 149.374 145.019 149.287C145.08 149.192 145.172 149.107 145.284 149.054C145.387 149.004 145.468 149 145.495 149V151C145.918 151 146.405 150.835 146.707 150.361C146.958 149.966 146.968 149.522 146.939 149.205L144.947 149.387ZM145.495 149H142.599V151H145.495V149ZM143.599 150V149.872H141.599V150H143.599ZM143.599 149.872C143.599 149.814 143.608 149.84 143.58 149.909C143.545 149.993 143.464 150.113 143.319 150.196L142.327 148.46C141.707 148.814 141.599 149.468 141.599 149.872H143.599ZM143.217 150.247C143.194 150.257 143.179 150.261 143.176 150.261C143.173 150.262 143.178 150.261 143.195 150.259L142.995 148.269C142.818 148.287 142.622 148.326 142.429 148.409L143.217 150.247ZM143.139 150.263L143.859 150.231L143.771 148.233L143.051 148.265L143.139 150.263ZM144.812 149.311L145.548 140.031L143.554 139.873L142.818 149.153L144.812 149.311ZM144.635 138.956L143.499 138.86L143.331 140.852L144.467 140.948L144.635 138.956ZM144.409 139.746C144.402 139.682 144.406 139.661 144.404 139.673C144.403 139.685 144.392 139.755 144.336 139.844C144.275 139.943 144.181 140.029 144.069 140.083C143.966 140.132 143.886 140.136 143.863 140.136V138.136C143.439 138.136 142.941 138.3 142.638 138.788C142.386 139.192 142.386 139.646 142.421 139.966L144.409 139.746ZM143.863 140.136H145.767V138.136H143.863V140.136ZM144.853 139.543L148.085 146.807L149.913 145.993L146.681 138.729L144.853 139.543ZM149.924 146.779L152.9 139.515L151.05 138.757L148.074 146.021L149.924 146.779ZM151.975 140.136H153.959V138.136H151.975V140.136ZM153.959 140.136C153.929 140.136 153.845 140.131 153.74 140.079C153.626 140.024 153.536 139.938 153.478 139.844C153.425 139.76 153.415 139.696 153.414 139.688C153.413 139.679 153.417 139.702 153.411 139.767L155.403 139.945C155.431 139.626 155.421 139.182 155.176 138.788C154.879 138.31 154.392 138.136 153.959 138.136V140.136ZM154.322 138.86L153.202 138.956L153.372 140.948L154.492 140.852L154.322 138.86ZM152.29 140.03L153.01 149.246L155.004 149.09L154.284 139.874L152.29 140.03ZM153.887 150.161L154.943 150.289L155.183 148.303L154.127 148.175L153.887 150.161ZM154.067 149.387C154.073 149.448 154.068 149.467 154.07 149.454C154.072 149.442 154.084 149.374 154.139 149.287C154.2 149.192 154.292 149.107 154.404 149.054C154.507 149.004 154.588 149 154.615 149V151C155.038 151 155.525 150.835 155.827 150.361C156.078 149.966 156.088 149.522 156.059 149.205L154.067 149.387ZM163.041 149.504H164.041V148.618L163.161 148.511L163.041 149.504ZM160.897 149.248L161.885 149.091L161.583 147.191L160.201 148.53L160.897 149.248ZM156.673 149.68L156.004 150.423L156.014 150.432L156.024 150.441L156.673 149.68ZM160.865 146.032L160.579 146.99L161.865 147.373V146.032H160.865ZM160.401 143.312L159.62 143.937L159.63 143.949L159.64 143.961L160.401 143.312ZM157.809 143.232L157.028 142.607L157.025 142.611L157.809 143.232ZM157.393 144.32L157.476 145.317L158.325 145.246L158.39 144.397L157.393 144.32ZM157.201 142.4L157.738 143.244L157.745 143.239L157.751 143.235L157.201 142.4ZM160.881 142.416L160.402 143.294L160.412 143.299L160.422 143.305L160.881 142.416ZM161.681 143.264L162.57 142.807L162.57 142.807L161.681 143.264ZM161.985 149.376H160.985V150.262L161.865 150.369L161.985 149.376ZM160.865 146.992H161.865V146.397L161.342 146.113L160.865 146.992ZM157.713 146.96L157.091 146.177L157.085 146.182L157.078 146.187L157.713 146.96ZM157.665 148.992L156.972 149.713L156.98 149.721L156.988 149.728L157.665 148.992ZM160.865 148.496L161.528 149.245L161.865 148.946V148.496H160.865ZM162.041 149.504C162.041 149.521 162.038 149.488 162.063 149.43C162.091 149.367 162.137 149.31 162.189 149.271C162.235 149.236 162.261 149.234 162.238 149.239C162.213 149.246 162.154 149.256 162.049 149.256V151.256C162.477 151.256 162.982 151.18 163.397 150.865C163.865 150.51 164.041 149.995 164.041 149.504H162.041ZM162.049 149.256C161.967 149.256 161.925 149.245 161.911 149.241C161.9 149.238 161.909 149.239 161.923 149.251C161.959 149.282 161.913 149.274 161.885 149.091L159.909 149.405C159.987 149.894 160.187 150.39 160.606 150.757C161.029 151.127 161.549 151.256 162.049 151.256V149.256ZM160.201 148.53C159.707 149.008 159.136 149.24 158.433 149.24V151.24C159.65 151.24 160.721 150.81 161.593 149.966L160.201 148.53ZM158.433 149.24C157.867 149.24 157.533 149.099 157.322 148.919L156.024 150.441C156.688 151.008 157.527 151.24 158.433 151.24V149.24ZM157.342 148.937C157.155 148.769 157.033 148.537 157.033 148.128H155.033C155.033 149.02 155.337 149.823 156.004 150.423L157.342 148.937ZM157.033 148.128C157.033 147.757 157.156 147.472 157.435 147.211L156.071 145.749C155.39 146.384 155.033 147.197 155.033 148.128H157.033ZM157.435 147.211C157.638 147.022 158.118 146.808 159.137 146.808V144.808C157.937 144.808 156.828 145.042 156.071 145.749L157.435 147.211ZM159.137 146.808C159.713 146.808 160.19 146.874 160.579 146.99L161.15 145.074C160.537 144.891 159.862 144.808 159.137 144.808V146.808ZM161.865 146.032V144.768H159.865V146.032H161.865ZM161.865 144.768C161.865 143.989 161.664 143.252 161.162 142.663L159.64 143.961C159.756 144.097 159.865 144.331 159.865 144.768H161.865ZM161.182 142.687C160.65 142.023 159.887 141.752 159.073 141.752V143.752C159.432 143.752 159.554 143.854 159.62 143.937L161.182 142.687ZM159.073 141.752C158.319 141.752 157.545 141.961 157.028 142.607L158.59 143.857C158.595 143.85 158.611 143.83 158.672 143.807C158.741 143.781 158.866 143.752 159.073 143.752V141.752ZM157.025 142.611C156.649 143.085 156.442 143.64 156.396 144.243L158.39 144.397C158.408 144.168 158.478 143.997 158.592 143.853L157.025 142.611ZM157.31 143.323C157.273 143.327 157.268 143.322 157.283 143.326C157.291 143.328 157.303 143.331 157.316 143.338C157.329 143.344 157.342 143.352 157.353 143.36L156.153 144.96C156.558 145.264 157.028 145.354 157.476 145.317L157.31 143.323ZM157.353 143.36C157.383 143.383 157.412 143.411 157.436 143.443C157.461 143.475 157.476 143.505 157.486 143.528C157.505 143.574 157.497 143.585 157.497 143.536H155.497C155.497 144.02 155.648 144.582 156.153 144.96L157.353 143.36ZM157.497 143.536C157.497 143.496 157.486 143.404 157.738 143.244L156.664 141.556C155.977 141.993 155.497 142.659 155.497 143.536H157.497ZM157.751 143.235C158.012 143.063 158.411 142.936 159.025 142.936V140.936C158.146 140.936 157.329 141.118 156.651 141.565L157.751 143.235ZM159.025 142.936C159.504 142.936 159.958 143.052 160.402 143.294L161.36 141.538C160.63 141.14 159.848 140.936 159.025 140.936V142.936ZM160.422 143.305C160.534 143.363 160.665 143.475 160.791 143.721L162.57 142.807C162.291 142.264 161.889 141.811 161.34 141.527L160.422 143.305ZM160.791 143.721C160.904 143.941 160.985 144.255 160.985 144.704H162.985C162.985 144.022 162.863 143.377 162.57 142.807L160.791 143.721ZM160.985 144.704V149.376H162.985V144.704H160.985ZM161.865 150.369L162.921 150.497L163.161 148.511L162.105 148.383L161.865 150.369ZM161.342 146.113C160.683 145.755 159.943 145.592 159.153 145.592V147.592C159.664 147.592 160.066 147.696 160.387 147.871L161.342 146.113ZM159.153 145.592C158.411 145.592 157.66 145.726 157.091 146.177L158.334 147.743C158.384 147.704 158.593 147.592 159.153 147.592V145.592ZM157.078 146.187C156.522 146.644 156.265 147.277 156.265 147.968H158.265C158.265 147.805 158.306 147.767 158.348 147.733L157.078 146.187ZM156.265 147.968C156.265 148.621 156.478 149.239 156.972 149.713L158.357 148.271C158.318 148.233 158.265 148.168 158.265 147.968H156.265ZM156.988 149.728C157.488 150.189 158.125 150.36 158.769 150.36V148.36C158.474 148.36 158.375 148.286 158.342 148.256L156.988 149.728ZM158.769 150.36C159.799 150.36 160.726 149.954 161.528 149.245L160.202 147.747C159.702 148.19 159.232 148.36 158.769 148.36V150.36ZM161.865 148.496V146.992H159.865V148.496H161.865ZM169.328 150H168.328V151H169.328V150ZM169.552 149.392L169.946 150.311L169.999 150.289L170.048 150.26L169.552 149.392ZM169.824 149.312L169.779 148.313L169.752 148.314L169.725 148.317L169.824 149.312ZM170.528 149.28L170.574 150.279L171.528 150.236V149.28H170.528ZM167.568 143.152L168.004 144.052L168.004 144.052L167.568 143.152ZM166.368 143.968L165.728 143.2L165.368 143.5V143.968H166.368ZM166.368 149.248H165.368V150.167L166.284 150.244L166.368 149.248ZM167.504 149.344L168.499 149.247L168.419 148.418L167.588 148.348L167.504 149.344ZM164.064 150H163.064V151H164.064V150ZM164.576 149.312L164.53 148.313L164.506 148.314L164.483 148.316L164.576 149.312ZM165.264 149.28L165.311 150.279L166.264 150.235V149.28H165.264ZM165.264 142.976H166.264V142.085L165.379 141.983L165.264 142.976ZM164.432 142.88L164.547 141.887L164.531 141.885L164.515 141.883L164.432 142.88ZM164.048 142.224L163.917 141.233L163.048 141.347V142.224H164.048ZM166.112 141.952L167.098 141.783L166.936 140.835L165.981 140.961L166.112 141.952ZM166.32 143.168L165.334 143.337L165.477 144.168H166.32V143.168ZM166.368 143.168V144.168H166.768L167.057 143.893L166.368 143.168ZM170.864 142.688L170.157 143.395L170.165 143.403L170.864 142.688ZM171.632 149.248H170.632V150.166L171.547 150.244L171.632 149.248ZM172.752 149.344L173.747 149.247L173.667 148.419L172.838 148.348L172.752 149.344ZM172.304 149H169.328V151H172.304V149ZM170.328 150V149.872H168.328V150H170.328ZM170.328 149.872C170.328 149.829 170.336 149.885 170.29 149.983C170.265 150.036 170.225 150.102 170.161 150.165C170.097 150.229 170.023 150.278 169.946 150.311L169.158 148.473C168.451 148.776 168.328 149.475 168.328 149.872H170.328ZM170.048 150.26C170.012 150.281 169.98 150.293 169.958 150.299C169.937 150.306 169.924 150.307 169.924 150.307L169.725 148.317C169.512 148.338 169.279 148.397 169.056 148.524L170.048 150.26ZM169.87 150.311L170.574 150.279L170.483 148.281L169.779 148.313L169.87 150.311ZM171.528 149.28V145.136H169.528V149.28H171.528ZM171.528 145.136C171.528 144.284 171.364 143.46 170.868 142.835C170.337 142.165 169.568 141.896 168.752 141.896V143.896C169.12 143.896 169.24 144 169.301 144.077C169.397 144.198 169.528 144.495 169.528 145.136H171.528ZM168.752 141.896C168.182 141.896 167.635 142.008 167.132 142.252L168.004 144.052C168.205 143.954 168.448 143.896 168.752 143.896V141.896ZM167.132 142.252C166.681 142.471 166.211 142.797 165.728 143.2L167.008 144.736C167.421 144.392 167.752 144.174 168.004 144.052L167.132 142.252ZM165.368 143.968V149.248H167.368V143.968H165.368ZM166.284 150.244L167.42 150.34L167.588 148.348L166.452 148.252L166.284 150.244ZM166.509 149.441C166.514 149.492 166.509 149.501 166.513 149.478C166.516 149.455 166.532 149.379 166.593 149.286C166.659 149.185 166.756 149.102 166.867 149.051C166.969 149.004 167.047 149 167.072 149V151C167.474 151 167.957 150.851 168.263 150.386C168.522 149.994 168.529 149.552 168.499 149.247L166.509 149.441ZM167.072 149H164.064V151H167.072V149ZM165.064 150V149.872H163.064V150H165.064ZM165.064 149.872C165.064 149.862 165.065 150.003 164.93 150.151C164.796 150.297 164.657 150.309 164.669 150.308L164.483 148.316C164.154 148.347 163.759 148.468 163.454 148.801C163.149 149.135 163.064 149.54 163.064 149.872H165.064ZM164.623 150.311L165.311 150.279L165.218 148.281L164.53 148.313L164.623 150.311ZM166.264 149.28V142.976H164.264V149.28H166.264ZM165.379 141.983L164.547 141.887L164.318 143.873L165.15 143.969L165.379 141.983ZM164.515 141.883C164.588 141.89 164.69 141.914 164.794 141.979C164.899 142.044 164.967 142.127 165.007 142.195C165.073 142.308 165.048 142.356 165.048 142.224H163.048C163.048 142.508 163.087 142.874 163.281 143.205C163.512 143.6 163.902 143.839 164.349 143.877L164.515 141.883ZM164.179 143.215L166.243 142.943L165.981 140.961L163.917 141.233L164.179 143.215ZM165.126 142.121L165.334 143.337L167.306 142.999L167.098 141.783L165.126 142.121ZM166.32 144.168H166.368V142.168H166.32V144.168ZM167.057 143.893C167.793 143.193 168.449 142.936 169.04 142.936V140.936C167.797 140.936 166.671 141.5 165.679 142.443L167.057 143.893ZM169.04 142.936C169.492 142.936 169.845 143.083 170.157 143.395L171.571 141.981C170.881 141.29 170.018 140.936 169.04 140.936V142.936ZM170.165 143.403C170.411 143.644 170.632 144.108 170.632 145.008H172.632C172.632 143.817 172.341 142.735 171.564 141.973L170.165 143.403ZM170.632 145.008V149.248H172.632V145.008H170.632ZM171.547 150.244L172.667 150.34L172.838 148.348L171.718 148.252L171.547 150.244ZM171.757 149.441C171.762 149.49 171.757 149.496 171.761 149.471C171.765 149.444 171.783 149.365 171.846 149.272C171.915 149.171 172.012 149.093 172.117 149.046C172.214 149.003 172.286 149 172.304 149V151C172.699 151 173.184 150.86 173.498 150.4C173.768 150.005 173.778 149.557 173.747 149.247L171.757 149.441ZM173.797 144.176L172.797 144.161L172.797 144.168V144.176H173.797ZM174.645 142.528L174.055 141.721L174.055 141.721L174.645 142.528ZM176.453 141.936L176.436 142.936L176.436 142.936L176.453 141.936ZM178.085 142.288L177.62 143.173L177.629 143.178L177.637 143.182L178.085 142.288ZM178.709 143.248L179.708 143.285L179.708 143.273L178.709 143.248ZM178.405 143.872L178.959 144.704L178.959 144.704L178.405 143.872ZM177.781 144.032L176.781 144.003L176.754 144.939L177.686 145.027L177.781 144.032ZM177.429 143.12L176.722 143.827L176.729 143.835L176.737 143.843L177.429 143.12ZM176.389 142.752L176.365 143.752L176.365 143.752L176.389 142.752ZM175.237 143.072L175.818 143.886L175.823 143.882L175.237 143.072ZM175.221 144.736L174.653 145.559L174.669 145.57L174.686 145.581L175.221 144.736ZM176.565 145.376L176.927 144.444L176.927 144.444L176.565 145.376ZM177.733 145.872L177.267 146.757L177.294 146.771L177.322 146.784L177.733 145.872ZM178.421 146.272L178.993 145.452L178.992 145.451L178.421 146.272ZM179.077 147.728L178.077 147.695L178.077 147.703L178.077 147.712L179.077 147.728ZM178.229 149.488L178.907 150.223L178.914 150.216L178.229 149.488ZM176.005 150.24L175.972 151.239L175.983 151.24L175.993 151.24L176.005 150.24ZM174.261 149.824L173.791 150.707L173.798 150.711L173.806 150.715L174.261 149.824ZM173.509 148.736L172.51 148.693L172.509 148.714V148.736H173.509ZM173.749 148.16L174.429 148.893L174.431 148.891L173.749 148.16ZM174.325 147.952L175.306 147.76L175.156 146.99L174.372 146.953L174.325 147.952ZM174.965 149.008L174.349 149.796L174.355 149.801L174.361 149.805L174.965 149.008ZM176.261 149.424L176.24 150.424L176.25 150.424H176.261V149.424ZM177.541 149.072L178.107 149.896L178.116 149.89L178.124 149.884L177.541 149.072ZM178.069 148.112L179.068 148.139L179.068 148.139L178.069 148.112ZM177.701 147.216L177.064 147.987L177.072 147.994L177.08 148L177.701 147.216ZM176.629 146.656L176.268 147.589L176.278 147.592L176.287 147.596L176.629 146.656ZM175.637 146.272L175.256 147.197L175.265 147.2L175.274 147.204L175.637 146.272ZM174.949 145.936L174.46 146.809L174.467 146.813L174.475 146.816L174.949 145.936ZM174.325 145.488L173.597 146.174L173.607 146.185L173.618 146.195L174.325 145.488ZM174.797 144.191C174.802 143.808 174.936 143.554 175.235 143.335L174.055 141.721C173.244 142.313 172.812 143.157 172.797 144.161L174.797 144.191ZM175.235 143.335C175.624 143.051 176.016 142.929 176.436 142.936L176.469 140.936C175.588 140.922 174.775 141.194 174.055 141.721L175.235 143.335ZM176.436 142.936C176.997 142.945 177.373 143.044 177.62 143.173L178.549 141.403C177.942 141.084 177.231 140.948 176.469 140.936L176.436 142.936ZM177.637 143.182C177.731 143.229 177.737 143.255 177.722 143.233C177.716 143.223 177.711 143.212 177.709 143.204C177.707 143.196 177.709 143.201 177.709 143.223L179.708 143.273C179.718 142.883 179.626 142.492 179.399 142.143C179.177 141.801 178.865 141.56 178.532 141.394L177.637 143.182ZM177.709 143.211C177.708 143.249 177.702 143.23 177.726 143.182C177.737 143.158 177.755 143.13 177.778 143.103C177.802 143.076 177.827 143.055 177.85 143.04L178.959 144.704C179.485 144.353 179.689 143.805 179.708 143.285L177.709 143.211ZM177.85 143.04C177.845 143.043 177.843 143.044 177.845 143.043C177.847 143.042 177.851 143.041 177.856 143.039C177.862 143.038 177.867 143.037 177.872 143.037C177.876 143.036 177.878 143.037 177.875 143.037L177.686 145.027C178.145 145.071 178.581 144.956 178.959 144.704L177.85 143.04ZM178.78 144.061C178.798 143.436 178.591 142.848 178.12 142.397L176.737 143.843C176.758 143.863 176.764 143.875 176.768 143.884C176.772 143.895 176.783 143.93 176.781 144.003L178.78 144.061ZM178.136 142.413C177.659 141.936 177.028 141.767 176.412 141.752L176.365 143.752C176.514 143.755 176.607 143.776 176.659 143.795C176.707 143.812 176.721 143.826 176.722 143.827L178.136 142.413ZM176.412 141.752C175.78 141.738 175.17 141.886 174.65 142.262L175.823 143.882C175.922 143.81 176.08 143.745 176.365 143.752L176.412 141.752ZM174.655 142.258C174.125 142.637 173.794 143.194 173.773 143.873L175.772 143.935C175.773 143.922 175.774 143.917 175.774 143.918C175.773 143.92 175.772 143.924 175.77 143.927C175.768 143.93 175.768 143.929 175.774 143.923C175.78 143.916 175.793 143.903 175.818 143.886L174.655 142.258ZM173.773 143.873C173.751 144.592 174.097 145.176 174.653 145.559L175.788 143.913C175.763 143.895 175.752 143.884 175.749 143.881C175.747 143.878 175.751 143.883 175.757 143.894C175.76 143.899 175.763 143.905 175.765 143.912C175.768 143.918 175.769 143.924 175.77 143.929C175.773 143.94 175.772 143.943 175.772 143.935L173.773 143.873ZM174.686 145.581C175.083 145.833 175.599 146.073 176.202 146.308L176.927 144.444C176.379 144.231 175.998 144.045 175.756 143.891L174.686 145.581ZM176.202 146.308C176.783 146.534 177.121 146.68 177.267 146.757L178.198 144.987C177.938 144.85 177.498 144.666 176.927 144.444L176.202 146.308ZM177.322 146.784C177.466 146.849 177.642 146.948 177.85 147.093L178.992 145.451C178.709 145.254 178.426 145.087 178.143 144.96L177.322 146.784ZM177.848 147.092C177.98 147.184 178.09 147.318 178.077 147.695L180.076 147.761C180.106 146.837 179.778 146 178.993 145.452L177.848 147.092ZM178.077 147.712C178.071 148.046 177.938 148.388 177.543 148.76L178.914 150.216C179.629 149.542 180.061 148.711 180.076 147.744L178.077 147.712ZM177.55 148.753C177.224 149.054 176.75 149.249 176.016 149.24L175.993 151.24C177.115 151.253 178.124 150.946 178.907 150.223L177.55 148.753ZM176.037 149.241C175.497 149.223 175.065 149.112 174.715 148.933L173.806 150.715C174.459 151.048 175.19 151.214 175.972 151.239L176.037 149.241ZM174.73 148.941C174.581 148.862 174.531 148.801 174.519 148.783C174.514 148.775 174.513 148.772 174.512 148.77C174.512 148.768 174.509 148.758 174.509 148.736H172.509C172.509 149.658 173.055 150.316 173.791 150.707L174.73 148.941ZM174.508 148.779C174.509 148.753 174.512 148.763 174.5 148.793C174.486 148.826 174.461 148.863 174.429 148.893L173.068 147.427C172.688 147.78 172.529 148.242 172.51 148.693L174.508 148.779ZM174.431 148.891C174.419 148.902 174.392 148.922 174.352 148.937C174.313 148.951 174.284 148.951 174.277 148.951L174.372 146.953C173.886 146.93 173.429 147.091 173.066 147.429L174.431 148.891ZM173.343 148.144C173.473 148.81 173.812 149.376 174.349 149.796L175.58 148.22C175.435 148.106 175.347 147.969 175.306 147.76L173.343 148.144ZM174.361 149.805C174.907 150.219 175.552 150.409 176.24 150.424L176.281 148.424C175.945 148.417 175.727 148.331 175.568 148.211L174.361 149.805ZM176.261 150.424C176.927 150.424 177.563 150.27 178.107 149.896L176.974 148.248C176.835 148.343 176.619 148.424 176.261 148.424V150.424ZM178.124 149.884C178.7 149.47 179.049 148.869 179.068 148.139L177.069 148.085C177.068 148.136 177.057 148.157 177.052 148.166C177.046 148.177 177.025 148.211 176.957 148.26L178.124 149.884ZM179.068 148.139C179.085 147.503 178.877 146.872 178.321 146.432L177.08 148C177.08 148 177.075 147.996 177.07 147.989C177.064 147.981 177.061 147.974 177.06 147.972C177.058 147.967 177.071 147.997 177.069 148.085L179.068 148.139ZM178.338 146.445C177.969 146.14 177.493 145.906 176.97 145.716L176.287 147.596C176.703 147.747 176.942 147.886 177.064 147.987L178.338 146.445ZM176.989 145.723C176.52 145.542 176.19 145.414 175.999 145.34L175.274 147.204C175.467 147.279 175.799 147.407 176.268 147.589L176.989 145.723ZM176.017 145.347C175.881 145.291 175.686 145.197 175.423 145.056L174.475 146.816C174.766 146.974 175.03 147.103 175.256 147.197L176.017 145.347ZM175.437 145.063C175.218 144.941 175.094 144.843 175.032 144.781L173.618 146.195C173.854 146.431 174.146 146.632 174.46 146.809L175.437 145.063ZM175.052 144.802C174.871 144.609 174.797 144.416 174.797 144.176H172.797C172.797 144.939 173.075 145.62 173.597 146.174L175.052 144.802ZM180.221 150H179.221V151H180.221V150ZM180.445 149.392L180.839 150.311L180.892 150.289L180.941 150.26L180.445 149.392ZM180.717 149.312L180.67 148.313L180.644 148.314L180.618 148.317L180.717 149.312ZM181.389 149.28L181.437 150.279L182.389 150.234V149.28H181.389ZM181.389 142.944H182.389V142.018L181.466 141.947L181.389 142.944ZM180.557 142.88L180.433 143.872L180.457 143.875L180.48 143.877L180.557 142.88ZM180.173 142.192L180.063 141.198L179.173 141.296V142.192H180.173ZM182.493 141.936H183.493V140.82L182.383 140.942L182.493 141.936ZM182.493 149.248H181.493V150.172L182.414 150.245L182.493 149.248ZM183.709 149.344L184.704 149.247L184.623 148.413L183.788 148.347L183.709 149.344ZM182.381 140.48L183.062 141.213L183.075 141.2L183.088 141.187L182.381 140.48ZM181.229 140.48L180.496 141.16L180.522 141.188L180.549 141.213L181.229 140.48ZM181.229 139.328L180.522 138.621L180.509 138.634L180.496 138.648L181.229 139.328ZM183.261 149H180.221V151H183.261V149ZM181.221 150V149.872H179.221V150H181.221ZM181.221 149.872C181.221 149.829 181.229 149.885 181.183 149.983C181.158 150.036 181.118 150.102 181.054 150.165C180.99 150.229 180.916 150.278 180.839 150.311L180.051 148.473C179.344 148.776 179.221 149.475 179.221 149.872H181.221ZM180.941 150.26C180.905 150.281 180.873 150.293 180.851 150.299C180.83 150.306 180.817 150.307 180.817 150.307L180.618 148.317C180.405 148.338 180.172 148.397 179.949 148.524L180.941 150.26ZM180.765 150.311L181.437 150.279L181.342 148.281L180.67 148.313L180.765 150.311ZM182.389 149.28V142.944H180.389V149.28H182.389ZM181.466 141.947L180.634 141.883L180.48 143.877L181.312 143.941L181.466 141.947ZM180.681 141.888C180.757 141.897 180.855 141.926 180.952 141.992C181.048 142.058 181.109 142.136 181.142 142.197C181.198 142.296 181.173 142.33 181.173 142.192H179.173C179.173 142.481 179.212 142.842 179.396 143.171C179.612 143.558 179.983 143.816 180.433 143.872L180.681 141.888ZM180.283 143.186L182.603 142.93L182.383 140.942L180.063 141.198L180.283 143.186ZM181.493 141.936V149.248H183.493V141.936H181.493ZM182.414 150.245L183.63 150.341L183.788 148.347L182.572 148.251L182.414 150.245ZM182.714 149.441C182.719 149.49 182.714 149.496 182.718 149.471C182.722 149.444 182.74 149.365 182.803 149.272C182.872 149.171 182.969 149.093 183.074 149.046C183.171 149.003 183.243 149 183.261 149V151C183.656 151 184.141 150.86 184.455 150.4C184.725 150.005 184.735 149.557 184.704 149.247L182.714 149.441ZM181.701 139.747C181.725 139.725 181.755 139.706 181.785 139.695C181.813 139.685 181.824 139.688 181.805 139.688V141.688C182.251 141.688 182.699 141.549 183.062 141.213L181.701 139.747ZM181.805 139.688C181.787 139.688 181.797 139.685 181.825 139.695C181.855 139.706 181.886 139.725 181.91 139.747L180.549 141.213C180.911 141.549 181.359 141.688 181.805 141.688V139.688ZM181.962 139.8C181.984 139.824 182.003 139.854 182.014 139.884C182.024 139.912 182.021 139.923 182.021 139.904H180.021C180.021 140.35 180.16 140.798 180.496 141.16L181.962 139.8ZM182.021 139.904C182.021 139.885 182.024 139.896 182.014 139.924C182.003 139.954 181.984 139.984 181.962 140.008L180.496 138.648C180.16 139.01 180.021 139.458 180.021 139.904H182.021ZM181.936 140.035C181.915 140.056 181.884 140.078 181.848 140.092C181.813 140.105 181.795 140.104 181.805 140.104V138.104C181.338 138.104 180.881 138.262 180.522 138.621L181.936 140.035ZM181.805 140.104C181.816 140.104 181.797 140.105 181.763 140.092C181.726 140.078 181.695 140.056 181.674 140.035L183.088 138.621C182.73 138.262 182.273 138.104 181.805 138.104V140.104ZM181.674 140.035C181.653 140.014 181.631 139.983 181.617 139.946C181.604 139.912 181.605 139.894 181.605 139.904H183.605C183.605 139.436 183.447 138.979 183.088 138.621L181.674 140.035ZM181.605 139.904C181.605 139.914 181.604 139.896 181.617 139.862C181.631 139.825 181.653 139.794 181.674 139.773L183.088 141.187C183.447 140.829 183.605 140.372 183.605 139.904H181.605ZM194.887 139.6L195.531 138.836L195.525 138.83L195.518 138.825L194.887 139.6ZM195.095 141.44L195.735 142.208L195.739 142.205L195.095 141.44ZM194.391 141.664H193.391V142.626L194.352 142.663L194.391 141.664ZM190.919 140.24L190.339 139.425L190.329 139.432L190.919 140.24ZM191.207 142.912L190.67 143.756L190.672 143.757L191.207 142.912ZM191.991 143.36L191.563 144.264L191.563 144.264L191.991 143.36ZM192.951 143.792L192.549 144.708L192.558 144.712L192.568 144.716L192.951 143.792ZM193.959 144.24L193.511 145.134L193.519 145.138L193.527 145.142L193.959 144.24ZM194.759 144.704L194.204 145.536L194.215 145.543L194.226 145.55L194.759 144.704ZM195.399 145.232L196.187 144.617L196.181 144.609L196.175 144.601L195.399 145.232ZM194.823 149.216L194.137 148.488L194.132 148.493L194.823 149.216ZM189.751 149.728L189.28 150.61L189.286 150.614L189.751 149.728ZM189.031 147.68L188.302 146.995L188.291 147.006L188.281 147.018L189.031 147.68ZM189.719 147.408L190.699 147.212L190.538 146.408H189.719V147.408ZM190.567 148.864L191.17 148.066L191.17 148.066L190.567 148.864ZM194.103 148.768L194.746 149.533L194.756 149.525L194.103 148.768ZM194.151 145.76L193.551 146.56L193.56 146.567L194.151 145.76ZM193.047 145.136L192.64 146.05L192.656 146.057L192.671 146.063L193.047 145.136ZM191.159 144.272L190.673 145.146L190.692 145.157L190.711 145.166L191.159 144.272ZM190.215 143.664L189.627 144.473L189.631 144.476L190.215 143.664ZM190.167 139.728L190.79 140.51L190.791 140.509L190.167 139.728ZM192.535 138.928L192.513 137.928L192.512 137.928L192.535 138.928ZM194.242 140.364C194.399 140.497 194.399 140.568 194.399 140.608H196.399C196.399 139.88 196.057 139.279 195.531 138.836L194.242 140.364ZM194.399 140.608C194.399 140.661 194.395 140.699 194.391 140.725C194.387 140.75 194.383 140.761 194.383 140.761C194.384 140.76 194.388 140.748 194.4 140.73C194.413 140.712 194.429 140.693 194.45 140.675L195.739 142.205C196.254 141.771 196.399 141.15 196.399 140.608H194.399ZM194.454 140.672C194.454 140.672 194.456 140.67 194.461 140.668C194.465 140.665 194.469 140.664 194.471 140.663C194.474 140.662 194.473 140.663 194.467 140.664C194.46 140.665 194.448 140.665 194.429 140.665L194.352 142.663C194.847 142.682 195.331 142.544 195.735 142.208L194.454 140.672ZM195.391 141.664C195.391 140.878 195.181 140.108 194.592 139.547C194.011 138.996 193.231 138.808 192.439 138.808V140.808C192.947 140.808 193.143 140.93 193.214 140.997C193.274 141.055 193.391 141.213 193.391 141.664H195.391ZM192.439 138.808C191.67 138.808 190.949 138.992 190.339 139.425L191.498 141.055C191.699 140.912 191.991 140.808 192.439 140.808V138.808ZM190.329 139.432C189.662 139.919 189.327 140.627 189.327 141.44H191.327C191.327 141.229 191.386 141.137 191.508 141.048L190.329 139.432ZM189.327 141.44C189.327 142.444 189.843 143.23 190.67 143.756L191.744 142.068C191.397 141.848 191.327 141.652 191.327 141.44H189.327ZM190.672 143.757C191.006 143.969 191.307 144.142 191.563 144.264L192.419 142.456C192.269 142.386 192.047 142.261 191.742 142.067L190.672 143.757ZM191.563 144.264C191.779 144.366 192.11 144.515 192.549 144.708L193.353 142.876C192.917 142.685 192.608 142.546 192.419 142.456L191.563 144.264ZM192.568 144.716C192.997 144.894 193.308 145.033 193.511 145.134L194.406 143.346C194.14 143.213 193.778 143.053 193.334 142.868L192.568 144.716ZM193.527 145.142C193.72 145.234 193.945 145.364 194.204 145.536L195.313 143.872C194.996 143.66 194.688 143.48 194.39 143.338L193.527 145.142ZM194.226 145.55C194.466 145.702 194.58 145.81 194.623 145.863L196.175 144.601C195.94 144.313 195.627 144.069 195.291 143.858L194.226 145.55ZM194.61 145.847C194.809 146.102 194.911 146.39 194.911 146.752H196.911C196.911 145.962 196.671 145.237 196.187 144.617L194.61 145.847ZM194.911 146.752C194.911 147.425 194.67 147.986 194.137 148.488L195.508 149.944C196.426 149.081 196.911 147.999 196.911 146.752H194.911ZM194.132 148.493C193.637 148.965 192.958 149.24 191.991 149.24V151.24C193.37 151.24 194.579 150.832 195.513 149.939L194.132 148.493ZM191.991 149.24C191.286 149.24 190.703 149.098 190.215 148.842L189.286 150.614C190.1 151.04 191.01 151.24 191.991 151.24V149.24ZM190.221 148.846C189.799 148.62 189.791 148.456 189.791 148.368H187.791C187.791 149.411 188.422 150.153 189.28 150.61L190.221 148.846ZM189.791 148.368C189.791 148.326 189.797 148.312 189.795 148.317C189.794 148.32 189.792 148.324 189.789 148.33C189.786 148.335 189.783 148.339 189.78 148.342L188.281 147.018C187.936 147.409 187.791 147.885 187.791 148.368H189.791ZM189.759 148.365C189.753 148.372 189.744 148.38 189.732 148.388C189.72 148.396 189.708 148.402 189.698 148.406C189.678 148.414 189.68 148.408 189.719 148.408V146.408C189.202 146.408 188.692 146.581 188.302 146.995L189.759 148.365ZM188.738 147.604C188.904 148.436 189.295 149.156 189.964 149.662L191.17 148.066C190.963 147.91 190.789 147.66 190.699 147.212L188.738 147.604ZM189.964 149.662C190.623 150.16 191.438 150.36 192.311 150.36V148.36C191.733 148.36 191.385 148.229 191.17 148.066L189.964 149.662ZM192.311 150.36C193.226 150.36 194.065 150.106 194.746 149.533L193.459 148.003C193.202 148.219 192.846 148.36 192.311 148.36V150.36ZM194.756 149.525C195.462 148.916 195.807 148.098 195.807 147.168H193.807C193.807 147.561 193.682 147.81 193.449 148.011L194.756 149.525ZM195.807 147.168C195.807 146.282 195.475 145.49 194.741 144.953L193.56 146.567C193.701 146.67 193.807 146.816 193.807 147.168H195.807ZM194.751 144.96C194.34 144.652 193.897 144.402 193.422 144.209L192.671 146.063C192.986 146.19 193.278 146.356 193.551 146.56L194.751 144.96ZM193.453 144.222C193.069 144.052 192.733 143.902 192.445 143.774L191.632 145.602C191.92 145.73 192.256 145.879 192.64 146.05L193.453 144.222ZM192.445 143.774C192.171 143.653 191.892 143.521 191.606 143.378L190.711 145.166C191.023 145.322 191.33 145.467 191.632 145.602L192.445 143.774ZM191.644 143.398C191.398 143.261 191.116 143.081 190.798 142.852L189.631 144.476C189.996 144.738 190.343 144.963 190.673 145.146L191.644 143.398ZM190.802 142.855C190.401 142.564 190.223 142.215 190.223 141.712H188.223C188.223 142.852 188.705 143.804 189.627 144.473L190.802 142.855ZM190.223 141.712C190.223 141.188 190.404 140.817 190.79 140.51L189.544 138.946C188.67 139.641 188.223 140.594 188.223 141.712H190.223ZM190.791 140.509C191.236 140.153 191.805 139.945 192.557 139.928L192.512 137.928C191.387 137.954 190.378 138.279 189.542 138.947L190.791 140.509ZM192.556 139.928C193.391 139.91 193.917 140.1 194.255 140.375L195.518 138.825C194.704 138.161 193.662 137.904 192.513 137.928L192.556 139.928ZM203.208 145.792V146.792H204.208V145.792H203.208ZM198.184 145.792V144.792H197.279L197.189 145.692L198.184 145.792ZM198.744 148.496L197.917 149.058L197.922 149.065L198.744 148.496ZM202.856 148.464L203.496 147.696L202.876 147.179L202.24 147.676L202.856 148.464ZM202.168 149.776L201.702 148.891L201.695 148.895L202.168 149.776ZM197.832 149.264L197.089 149.934L197.095 149.94L197.832 149.264ZM198.008 143.12L198.75 143.791L198.754 143.786L198.008 143.12ZM202.584 142.848L203.403 142.274L203.403 142.274L202.584 142.848ZM203.208 145.024L202.208 145.011V145.024H203.208ZM202.04 145.072V146.072H203.04V145.072H202.04ZM201.624 143.376L200.786 143.921L200.792 143.931L201.624 143.376ZM199.064 143.36L198.32 142.692L198.32 142.692L199.064 143.36ZM198.28 145.072L197.301 144.87L197.053 146.072H198.28V145.072ZM203.208 144.792H198.184V146.792H203.208V144.792ZM197.189 145.692C197.173 145.851 197.168 146.058 197.168 146.288H199.168C199.168 146.07 199.174 145.946 199.179 145.892L197.189 145.692ZM197.168 146.288C197.168 147.331 197.389 148.281 197.917 149.058L199.571 147.934C199.331 147.581 199.168 147.059 199.168 146.288H197.168ZM197.922 149.065C198.532 149.946 199.473 150.328 200.536 150.328V148.328C199.978 148.328 199.724 148.155 199.566 147.927L197.922 149.065ZM200.536 150.328C201.603 150.328 202.589 149.943 203.472 149.252L202.24 147.676C201.652 148.137 201.09 148.328 200.536 148.328V150.328ZM202.216 149.232C202.184 149.205 202.136 149.155 202.099 149.077C202.061 148.998 202.048 148.921 202.048 148.864H204.048C204.048 148.393 203.841 147.983 203.496 147.696L202.216 149.232ZM202.048 148.864C202.048 148.663 202.15 148.578 202.109 148.622C202.09 148.64 202.052 148.676 201.981 148.725C201.912 148.773 201.82 148.829 201.702 148.891L202.635 150.661C202.975 150.481 203.298 150.27 203.548 150.01C203.799 149.75 204.048 149.363 204.048 148.864H202.048ZM201.695 148.895C201.28 149.118 200.795 149.24 200.216 149.24V151.24C201.088 151.24 201.904 151.053 202.641 150.657L201.695 148.895ZM200.216 149.24C199.466 149.24 198.952 149.006 198.569 148.588L197.095 149.94C197.907 150.824 198.982 151.24 200.216 151.24V149.24ZM198.575 148.594C198.222 148.203 197.952 147.499 197.952 146.288H195.952C195.952 147.744 196.269 149.024 197.089 149.934L198.575 148.594ZM197.952 146.288C197.952 145.133 198.253 144.34 198.75 143.791L197.266 142.449C196.355 143.457 195.952 144.776 195.952 146.288H197.952ZM198.754 143.786C199.29 143.185 199.86 142.936 200.504 142.936V140.936C199.228 140.936 198.134 141.477 197.262 142.454L198.754 143.786ZM200.504 142.936C201.244 142.936 201.58 143.157 201.766 143.422L203.403 142.274C202.735 141.323 201.684 140.936 200.504 140.936V142.936ZM201.766 143.422C202.056 143.836 202.217 144.349 202.208 145.011L204.208 145.037C204.221 144.014 203.966 143.076 203.403 142.274L201.766 143.422ZM202.208 145.024V145.792H204.208V145.024H202.208ZM203.04 145.072C203.04 144.241 202.881 143.458 202.456 142.821L200.792 143.931C200.922 144.126 201.04 144.474 201.04 145.072H203.04ZM202.463 142.831C201.99 142.105 201.26 141.736 200.408 141.736V143.736C200.623 143.736 200.703 143.794 200.786 143.921L202.463 142.831ZM200.408 141.736C199.58 141.736 198.868 142.081 198.32 142.692L199.808 144.028C200.007 143.807 200.191 143.736 200.408 143.736V141.736ZM198.32 142.692C197.796 143.276 197.474 144.026 197.301 144.87L199.26 145.274C199.384 144.667 199.586 144.276 199.808 144.028L198.32 142.692ZM198.28 146.072H202.04V144.072H198.28V146.072ZM209.735 150H208.735V151H209.735V150ZM210.247 149.312L210.198 148.313L210.176 148.314L210.154 148.316L210.247 149.312ZM210.903 149.28L210.952 150.279L211.903 150.232V149.28H210.903ZM210.407 143.52L209.641 144.162L209.649 144.173L210.407 143.52ZM207.815 143.184L207.368 142.289L207.356 142.295L207.815 143.184ZM206.743 143.952L206.079 143.205L205.743 143.503V143.952H206.743ZM206.743 149.248H205.743V150.172L206.664 150.245L206.743 149.248ZM207.959 149.344L208.954 149.247L208.873 148.413L208.038 148.347L207.959 149.344ZM204.471 150H203.471V151H204.471V150ZM204.695 149.392L205.089 150.311L205.142 150.289L205.191 150.26L204.695 149.392ZM204.967 149.312L204.92 148.313L204.894 148.314L204.868 148.317L204.967 149.312ZM205.639 149.28L205.687 150.279L206.639 150.234V149.28H205.639ZM205.639 139.904H206.639V138.996L205.735 138.909L205.639 139.904ZM204.807 139.824L204.683 140.816L204.697 140.818L204.711 140.819L204.807 139.824ZM204.423 139.136L204.293 138.144L203.423 138.258V139.136H204.423ZM206.743 138.832H207.743V137.692L206.613 137.84L206.743 138.832ZM206.743 143.072H205.743V145.536L207.46 143.769L206.743 143.072ZM211.175 142.72L210.475 143.434L210.483 143.441L211.175 142.72ZM211.991 145.168L212.991 145.164L212.991 145.158L211.991 145.168ZM212.007 149.248L211.007 149.252L211.011 150.171L211.927 150.245L212.007 149.248ZM213.207 149.344L214.202 149.247L214.121 148.414L213.287 148.347L213.207 149.344ZM212.775 149H209.735V151H212.775V149ZM210.735 150V149.872H208.735V150H210.735ZM210.735 149.872C210.735 149.862 210.736 150.003 210.601 150.151C210.467 150.297 210.328 150.309 210.34 150.308L210.154 148.316C209.825 148.347 209.43 148.468 209.125 148.801C208.82 149.135 208.735 149.54 208.735 149.872H210.735ZM210.296 150.311L210.952 150.279L210.854 148.281L210.198 148.313L210.296 150.311ZM211.903 149.28V145.264H209.903V149.28H211.903ZM211.903 145.264C211.903 144.369 211.717 143.508 211.165 142.867L209.649 144.173C209.759 144.3 209.903 144.602 209.903 145.264H211.903ZM211.174 142.878C210.645 142.247 209.928 141.928 209.111 141.928V143.928C209.361 143.928 209.508 144.004 209.641 144.162L211.174 142.878ZM209.111 141.928C208.488 141.928 207.89 142.029 207.368 142.29L208.262 144.078C208.423 143.998 208.689 143.928 209.111 143.928V141.928ZM207.356 142.295C206.93 142.516 206.503 142.827 206.079 143.205L207.407 144.699C207.751 144.394 208.039 144.194 208.274 144.073L207.356 142.295ZM205.743 143.952V149.248H207.743V143.952H205.743ZM206.664 150.245L207.88 150.341L208.038 148.347L206.822 148.251L206.664 150.245ZM206.964 149.441C206.969 149.49 206.964 149.496 206.968 149.471C206.972 149.444 206.99 149.365 207.053 149.272C207.122 149.171 207.219 149.093 207.324 149.046C207.421 149.003 207.493 149 207.511 149V151C207.906 151 208.391 150.86 208.705 150.4C208.975 150.005 208.985 149.557 208.954 149.247L206.964 149.441ZM207.511 149H204.471V151H207.511V149ZM205.471 150V149.872H203.471V150H205.471ZM205.471 149.872C205.471 149.829 205.479 149.885 205.433 149.983C205.408 150.036 205.368 150.102 205.304 150.165C205.24 150.229 205.166 150.278 205.089 150.311L204.301 148.473C203.594 148.776 203.471 149.475 203.471 149.872H205.471ZM205.191 150.26C205.155 150.281 205.123 150.293 205.101 150.299C205.08 150.306 205.067 150.307 205.067 150.307L204.868 148.317C204.655 148.338 204.422 148.397 204.199 148.524L205.191 150.26ZM205.015 150.311L205.687 150.279L205.592 148.281L204.92 148.313L205.015 150.311ZM206.639 149.28V139.904H204.639V149.28H206.639ZM205.735 138.909L204.903 138.829L204.711 140.819L205.543 140.899L205.735 138.909ZM204.931 138.832C205.007 138.841 205.105 138.87 205.202 138.936C205.298 139.002 205.359 139.08 205.392 139.141C205.448 139.24 205.423 139.274 205.423 139.136H203.423C203.423 139.425 203.462 139.786 203.646 140.115C203.862 140.502 204.233 140.76 204.683 140.816L204.931 138.832ZM204.553 140.128L206.873 139.824L206.613 137.84L204.293 138.144L204.553 140.128ZM205.743 138.832V143.072H207.743V138.832H205.743ZM207.46 143.769C208.034 143.179 208.622 142.936 209.255 142.936V140.936C208.011 140.936 206.924 141.451 206.026 142.375L207.46 143.769ZM209.255 142.936C209.74 142.936 210.129 143.095 210.475 143.434L211.875 142.006C211.155 141.3 210.264 140.936 209.255 140.936V142.936ZM210.483 143.441C210.741 143.69 210.982 144.19 210.991 145.178L212.991 145.158C212.979 143.906 212.675 142.774 211.868 141.999L210.483 143.441ZM210.991 145.172L211.007 149.252L213.007 149.244L212.991 145.164L210.991 145.172ZM211.927 150.245L213.127 150.341L213.287 148.347L212.087 148.251L211.927 150.245ZM212.212 149.441C212.217 149.492 212.212 149.501 212.216 149.478C212.219 149.455 212.235 149.379 212.296 149.286C212.362 149.185 212.459 149.102 212.57 149.051C212.672 149.004 212.75 149 212.775 149V151C213.177 151 213.66 150.851 213.966 150.386C214.225 149.994 214.232 149.552 214.202 149.247L212.212 149.441ZM216.777 148.48L216.811 147.481L216.794 147.48H216.777V148.48ZM217.257 148.496L217.224 149.495L217.233 149.496L217.241 149.496L217.257 148.496ZM220.009 148.96L219.534 149.84L219.545 149.846L219.555 149.851L220.009 148.96ZM219.801 152.752L219.164 151.982L219.157 151.988L219.801 152.752ZM214.729 153.008L215.319 152.201L215.309 152.193L214.729 153.008ZM215.161 149.312L215.76 150.113L217.036 149.16L215.623 148.425L215.161 149.312ZM215.561 147.232L216.282 147.925L217.214 146.956L216.018 146.342L215.561 147.232ZM214.265 145.088L215.264 145.035L215.263 145.026L214.265 145.088ZM214.985 142.88L215.743 143.533L215.748 143.527L214.985 142.88ZM218.777 142.384L218.24 143.228L218.61 143.463L219.033 143.351L218.777 142.384ZM220.713 141.872L221.513 141.272L221.109 140.733L220.458 140.905L220.713 141.872ZM220.873 142.352L221.872 142.297L221.872 142.297L220.873 142.352ZM220.713 142.8L221.161 143.694L221.284 143.633L221.386 143.54L220.713 142.8ZM219.337 142.896L219.366 141.896L217.273 141.837L218.542 143.502L219.337 142.896ZM219.817 144.752L218.818 144.725L218.817 144.738L219.817 144.752ZM219.049 146.736L218.314 146.058L218.307 146.066L219.049 146.736ZM216.233 147.472L216.446 146.495L215.86 146.368L215.472 146.824L216.233 147.472ZM215.913 148.368L215.503 149.28L215.527 149.291L215.551 149.3L215.913 148.368ZM215.801 143.296L215.014 142.679L215.009 142.686L215.004 142.693L215.801 143.296ZM215.785 146.224L214.97 146.803L214.975 146.81L214.98 146.817L215.785 146.224ZM217.017 146.816L216.997 145.816L216.997 145.816L217.017 146.816ZM218.265 146.192L217.47 145.585L217.465 145.592L217.46 145.599L218.265 146.192ZM218.297 143.28L217.482 143.859L217.49 143.869L218.297 143.28ZM217.065 142.688L217.085 143.688L217.085 143.688L217.065 142.688ZM215.513 152.256L216.025 151.397L216.017 151.392L216.01 151.388L215.513 152.256ZM219.273 152.112L218.671 151.314L218.671 151.314L219.273 152.112ZM219.145 149.808L219.418 148.846L219.408 148.843L219.398 148.84L219.145 149.808ZM217.257 149.584L217.229 150.584L217.23 150.584L217.257 149.584ZM215.737 149.488L215.902 148.502L215.435 148.424L215.079 148.735L215.737 149.488ZM216.744 149.479L217.224 149.495L217.291 147.497L216.811 147.481L216.744 149.479ZM217.241 149.496C218.526 149.517 219.23 149.675 219.534 149.84L220.485 148.08C219.723 147.669 218.592 147.518 217.274 147.496L217.241 149.496ZM219.555 149.851C219.678 149.913 219.825 150.023 219.825 150.512H221.825C221.825 149.487 221.429 148.561 220.464 148.069L219.555 149.851ZM219.825 150.512C219.825 151.158 219.605 151.616 219.164 151.982L220.439 153.522C221.363 152.757 221.825 151.722 221.825 150.512H219.825ZM219.157 151.988C218.69 152.382 218.053 152.616 217.161 152.616V154.616C218.424 154.616 219.548 154.274 220.446 153.516L219.157 151.988ZM217.161 152.616C216.197 152.616 215.632 152.429 215.319 152.201L214.139 153.815C214.936 154.398 215.992 154.616 217.161 154.616V152.616ZM215.309 152.193C214.993 151.968 214.897 151.748 214.897 151.472H212.897C212.897 152.455 213.357 153.258 214.15 153.823L215.309 152.193ZM214.897 151.472C214.897 151.067 215.087 150.615 215.76 150.113L214.563 148.511C213.55 149.267 212.897 150.256 212.897 151.472H214.897ZM215.623 148.425C215.631 148.429 215.65 148.441 215.674 148.463C215.698 148.485 215.719 148.513 215.736 148.542C215.769 148.603 215.761 148.634 215.761 148.592H213.761C213.761 148.892 213.82 149.213 213.987 149.514C214.158 149.821 214.41 150.048 214.7 150.199L215.623 148.425ZM215.761 148.592C215.761 148.661 215.739 148.639 215.823 148.495C215.903 148.359 216.047 148.17 216.282 147.925L214.841 146.539C214.542 146.849 214.286 147.164 214.099 147.481C213.917 147.791 213.761 148.171 213.761 148.592H215.761ZM216.018 146.342C215.565 146.11 215.301 145.742 215.264 145.035L213.267 145.141C213.336 146.461 213.936 147.522 215.105 148.122L216.018 146.342ZM215.263 145.026C215.226 144.419 215.389 143.944 215.743 143.533L214.228 142.227C213.515 143.054 213.199 144.05 213.267 145.15L215.263 145.026ZM215.748 143.527C216.069 143.148 216.501 142.936 217.161 142.936V140.936C215.987 140.936 214.969 141.353 214.222 142.233L215.748 143.527ZM217.161 142.936C217.598 142.936 217.946 143.041 218.24 143.228L219.314 141.54C218.67 141.13 217.941 140.936 217.161 140.936V142.936ZM219.033 143.351L220.969 142.839L220.458 140.905L218.522 141.417L219.033 143.351ZM219.913 142.472C219.893 142.445 219.882 142.421 219.877 142.404C219.872 142.389 219.874 142.388 219.875 142.407L221.872 142.297C221.852 141.948 221.75 141.587 221.513 141.272L219.913 142.472ZM219.875 142.407C219.874 142.398 219.873 142.346 219.9 142.272C219.928 142.192 219.978 142.117 220.041 142.06L221.386 143.54C221.774 143.187 221.895 142.719 221.872 142.297L219.875 142.407ZM220.266 141.906C220.344 141.867 220.388 141.863 220.348 141.871C220.319 141.876 220.263 141.884 220.172 141.89C219.989 141.903 219.724 141.907 219.366 141.896L219.309 143.896C219.697 143.907 220.035 143.905 220.311 143.886C220.537 143.87 220.878 143.836 221.161 143.694L220.266 141.906ZM218.542 143.502C218.699 143.708 218.835 144.074 218.818 144.725L220.817 144.779C220.842 143.852 220.659 142.98 220.133 142.29L218.542 143.502ZM218.817 144.738C218.81 145.285 218.639 145.706 218.314 146.058L219.785 147.414C220.462 146.678 220.803 145.777 220.817 144.766L218.817 144.738ZM218.307 146.066C218.047 146.354 217.651 146.552 216.969 146.552V148.552C218.08 148.552 219.07 148.206 219.792 147.406L218.307 146.066ZM216.969 146.552C216.797 146.552 216.623 146.533 216.446 146.495L216.021 148.449C216.334 148.517 216.651 148.552 216.969 148.552V146.552ZM215.472 146.824C215.246 147.089 215.01 147.405 214.892 147.736C214.832 147.904 214.76 148.191 214.848 148.519C214.951 148.901 215.221 149.153 215.503 149.28L216.324 147.456C216.4 147.49 216.498 147.55 216.588 147.65C216.682 147.753 216.745 147.874 216.779 147.997C216.841 148.226 216.782 148.389 216.775 148.408C216.764 148.439 216.763 148.428 216.805 148.365C216.844 148.307 216.905 148.226 216.995 148.12L215.472 146.824ZM215.551 149.3C215.919 149.443 216.358 149.48 216.777 149.48V147.48C216.616 147.48 216.492 147.472 216.402 147.46C216.308 147.448 216.273 147.435 216.276 147.436L215.551 149.3ZM215.004 142.693C214.553 143.288 214.353 143.995 214.353 144.752H216.353C216.353 144.357 216.452 144.093 216.599 143.899L215.004 142.693ZM214.353 144.752C214.353 145.502 214.544 146.203 214.97 146.803L216.601 145.645C216.451 145.434 216.353 145.154 216.353 144.752H214.353ZM214.98 146.817C215.48 147.496 216.205 147.833 217.038 147.816L216.997 145.816C216.784 145.821 216.688 145.763 216.59 145.631L214.98 146.817ZM217.037 147.816C217.86 147.799 218.575 147.457 219.07 146.785L217.46 145.599C217.358 145.737 217.242 145.811 216.997 145.816L217.037 147.816ZM219.06 146.799C219.517 146.2 219.729 145.495 219.729 144.736H217.729C217.729 145.107 217.632 145.373 217.47 145.585L219.06 146.799ZM219.729 144.736C219.729 143.987 219.539 143.285 219.105 142.691L217.49 143.869C217.631 144.064 217.729 144.333 217.729 144.736H219.729ZM219.113 142.701C218.617 142.003 217.881 141.671 217.045 141.688L217.085 143.688C217.316 143.683 217.402 143.746 217.482 143.859L219.113 142.701ZM217.045 141.688C216.234 141.704 215.522 142.031 215.014 142.679L216.588 143.913C216.699 143.771 216.83 143.693 217.085 143.688L217.045 141.688ZM213.841 151.072C213.841 151.949 214.245 152.683 215.017 153.124L216.01 151.388C215.92 151.336 215.891 151.295 215.879 151.274C215.866 151.252 215.841 151.196 215.841 151.072H213.841ZM215.002 153.115C215.665 153.51 216.486 153.656 217.369 153.656V151.656C216.675 151.656 216.258 151.536 216.025 151.397L215.002 153.115ZM217.369 153.656C218.308 153.656 219.175 153.439 219.876 152.91L218.671 151.314C218.411 151.51 218.009 151.656 217.369 151.656V153.656ZM219.876 152.91C220.557 152.396 220.993 151.683 220.993 150.8H218.993C218.993 150.941 218.95 151.103 218.671 151.314L219.876 152.91ZM220.993 150.8C220.993 150.35 220.861 149.9 220.541 149.526C220.234 149.167 219.825 148.961 219.418 148.846L218.873 150.77C219.031 150.815 219.046 150.855 219.021 150.826C219.009 150.811 218.999 150.793 218.994 150.778C218.989 150.765 218.993 150.769 218.993 150.8H220.993ZM219.398 148.84C218.806 148.686 218.094 148.607 217.285 148.584L217.23 150.584C217.956 150.604 218.503 150.674 218.893 150.776L219.398 148.84ZM217.286 148.584C216.518 148.563 216.079 148.531 215.902 148.502L215.573 150.474C215.907 150.53 216.482 150.563 217.229 150.584L217.286 148.584ZM215.079 148.735C214.372 149.354 213.841 150.133 213.841 151.072H215.841C215.841 150.944 215.908 150.667 216.396 150.241L215.079 148.735ZM228.76 149.504H229.76V148.618L228.88 148.511L228.76 149.504ZM226.616 149.248L227.603 149.091L227.302 147.191L225.92 148.53L226.616 149.248ZM222.392 149.68L221.723 150.423L221.732 150.432L221.742 150.441L222.392 149.68ZM226.584 146.032L226.298 146.99L227.584 147.373V146.032H226.584ZM226.12 143.312L225.339 143.937L225.349 143.949L225.359 143.961L226.12 143.312ZM223.528 143.232L222.747 142.607L222.744 142.611L223.528 143.232ZM223.112 144.32L223.195 145.317L224.043 145.246L224.109 144.397L223.112 144.32ZM222.92 142.4L223.457 143.244L223.463 143.239L223.47 143.235L222.92 142.4ZM226.6 142.416L226.121 143.294L226.131 143.299L226.141 143.305L226.6 142.416ZM227.4 143.264L228.289 142.807L228.289 142.807L227.4 143.264ZM227.704 149.376H226.704V150.262L227.583 150.369L227.704 149.376ZM226.584 146.992H227.584V146.397L227.061 146.113L226.584 146.992ZM223.432 146.96L222.81 146.177L222.804 146.182L222.797 146.187L223.432 146.96ZM223.384 148.992L222.691 149.713L222.699 149.721L222.707 149.728L223.384 148.992ZM226.584 148.496L227.246 149.245L227.584 148.946V148.496H226.584ZM227.76 149.504C227.76 149.521 227.757 149.488 227.782 149.43C227.81 149.367 227.856 149.31 227.908 149.271C227.954 149.236 227.98 149.234 227.957 149.239C227.932 149.246 227.873 149.256 227.768 149.256V151.256C228.196 151.256 228.7 151.18 229.116 150.865C229.583 150.51 229.76 149.995 229.76 149.504H227.76ZM227.768 149.256C227.686 149.256 227.644 149.245 227.63 149.241C227.619 149.238 227.628 149.239 227.642 149.251C227.677 149.282 227.632 149.274 227.603 149.091L225.628 149.405C225.706 149.894 225.906 150.39 226.325 150.757C226.748 151.127 227.268 151.256 227.768 151.256V149.256ZM225.92 148.53C225.426 149.008 224.855 149.24 224.152 149.24V151.24C225.368 151.24 226.44 150.81 227.311 149.966L225.92 148.53ZM224.152 149.24C223.585 149.24 223.251 149.099 223.041 148.919L221.742 150.441C222.407 151.008 223.246 151.24 224.152 151.24V149.24ZM223.061 148.937C222.874 148.769 222.752 148.537 222.752 148.128H220.752C220.752 149.02 221.056 149.823 221.723 150.423L223.061 148.937ZM222.752 148.128C222.752 147.757 222.874 147.472 223.154 147.211L221.789 145.749C221.109 146.384 220.752 147.197 220.752 148.128H222.752ZM223.154 147.211C223.357 147.022 223.837 146.808 224.856 146.808V144.808C223.656 144.808 222.546 145.042 221.789 145.749L223.154 147.211ZM224.856 146.808C225.432 146.808 225.909 146.874 226.298 146.99L226.869 145.074C226.256 144.891 225.58 144.808 224.856 144.808V146.808ZM227.584 146.032V144.768H225.584V146.032H227.584ZM227.584 144.768C227.584 143.989 227.383 143.252 226.88 142.663L225.359 143.961C225.475 144.097 225.584 144.331 225.584 144.768H227.584ZM226.9 142.687C226.369 142.023 225.606 141.752 224.792 141.752V143.752C225.151 143.752 225.273 143.854 225.339 143.937L226.9 142.687ZM224.792 141.752C224.038 141.752 223.264 141.961 222.747 142.607L224.308 143.857C224.314 143.85 224.33 143.83 224.391 143.807C224.459 143.781 224.585 143.752 224.792 143.752V141.752ZM222.744 142.611C222.368 143.085 222.161 143.64 222.115 144.243L224.109 144.397C224.126 144.168 224.197 143.997 224.311 143.853L222.744 142.611ZM223.029 143.323C222.992 143.327 222.986 143.322 223.002 143.326C223.01 143.328 223.021 143.331 223.035 143.338C223.048 143.344 223.061 143.352 223.072 143.36L221.872 144.96C222.277 145.264 222.747 145.354 223.195 145.317L223.029 143.323ZM223.072 143.36C223.102 143.383 223.131 143.411 223.155 143.443C223.179 143.475 223.195 143.505 223.205 143.528C223.223 143.574 223.216 143.585 223.216 143.536H221.216C221.216 144.02 221.367 144.582 221.872 144.96L223.072 143.36ZM223.216 143.536C223.216 143.496 223.205 143.404 223.457 143.244L222.383 141.556C221.696 141.993 221.216 142.659 221.216 143.536H223.216ZM223.47 143.235C223.73 143.063 224.13 142.936 224.744 142.936V140.936C223.864 140.936 223.048 141.118 222.369 141.565L223.47 143.235ZM224.744 142.936C225.222 142.936 225.677 143.052 226.121 143.294L227.078 141.538C226.349 141.14 225.566 140.936 224.744 140.936V142.936ZM226.141 143.305C226.253 143.363 226.384 143.475 226.51 143.721L228.289 142.807C228.01 142.264 227.607 141.811 227.058 141.527L226.141 143.305ZM226.51 143.721C226.623 143.941 226.704 144.255 226.704 144.704H228.704C228.704 144.022 228.582 143.377 228.289 142.807L226.51 143.721ZM226.704 144.704V149.376H228.704V144.704H226.704ZM227.583 150.369L228.639 150.497L228.88 148.511L227.824 148.383L227.583 150.369ZM227.061 146.113C226.401 145.755 225.661 145.592 224.872 145.592V147.592C225.383 147.592 225.785 147.696 226.106 147.871L227.061 146.113ZM224.872 145.592C224.13 145.592 223.379 145.726 222.81 146.177L224.053 147.743C224.103 147.704 224.312 147.592 224.872 147.592V145.592ZM222.797 146.187C222.241 146.644 221.984 147.277 221.984 147.968H223.984C223.984 147.805 224.025 147.767 224.066 147.733L222.797 146.187ZM221.984 147.968C221.984 148.621 222.197 149.239 222.691 149.713L224.076 148.271C224.037 148.233 223.984 148.168 223.984 147.968H221.984ZM222.707 149.728C223.207 150.189 223.844 150.36 224.488 150.36V148.36C224.193 148.36 224.093 148.286 224.061 148.256L222.707 149.728ZM224.488 150.36C225.518 150.36 226.445 149.954 227.246 149.245L225.921 147.747C225.421 148.19 224.951 148.36 224.488 148.36V150.36ZM227.584 148.496V146.992H225.584V148.496H227.584ZM229.783 150H228.783V151H229.783V150ZM230.295 149.312L230.248 148.313L230.225 148.314L230.202 148.316L230.295 149.312ZM230.983 149.28L231.029 150.279L231.983 150.235V149.28H230.983ZM230.983 139.888H231.983V138.98L231.079 138.893L230.983 139.888ZM230.151 139.808L230.027 140.8L230.041 140.802L230.055 140.803L230.151 139.808ZM229.767 139.136L229.637 138.144L228.767 138.258V139.136H229.767ZM232.087 138.832H233.087V137.692L231.957 137.84L232.087 138.832ZM232.087 149.248H231.087V150.167L232.003 150.244L232.087 149.248ZM233.223 149.344L234.218 149.247L234.137 148.418L233.307 148.348L233.223 149.344ZM232.791 149H229.783V151H232.791V149ZM230.783 150V149.872H228.783V150H230.783ZM230.783 149.872C230.783 149.862 230.784 150.003 230.649 150.151C230.515 150.297 230.376 150.309 230.388 150.308L230.202 148.316C229.873 148.347 229.478 148.468 229.173 148.801C228.867 149.135 228.783 149.54 228.783 149.872H230.783ZM230.341 150.311L231.029 150.279L230.936 148.281L230.248 148.313L230.341 150.311ZM231.983 149.28V139.888H229.983V149.28H231.983ZM231.079 138.893L230.247 138.813L230.055 140.803L230.887 140.883L231.079 138.893ZM230.275 138.816C230.347 138.825 230.442 138.852 230.538 138.916C230.633 138.98 230.695 139.057 230.731 139.12C230.791 139.225 230.767 139.266 230.767 139.136H228.767C228.767 139.422 228.807 139.783 228.995 140.112C229.215 140.497 229.587 140.745 230.027 140.8L230.275 138.816ZM229.897 140.128L232.217 139.824L231.957 137.84L229.637 138.144L229.897 140.128ZM231.087 138.832V149.248H233.087V138.832H231.087ZM232.003 150.244L233.139 150.34L233.307 148.348L232.171 148.252L232.003 150.244ZM232.228 149.441C232.233 149.492 232.228 149.501 232.232 149.478C232.235 149.455 232.251 149.379 232.312 149.286C232.378 149.185 232.475 149.102 232.585 149.051C232.687 149.004 232.766 149 232.791 149V151C233.192 151 233.676 150.851 233.982 150.386C234.24 149.994 234.248 149.552 234.218 149.247L232.228 149.441Z" fill="black" mask="url(#path-7-outside-1_5_46)"/>
</svg>
